<?xml version="1.0" encoding="UTF-8" standalone="no"?>
<!-- Created with Inkscape (http://www.inkscape.org/) -->

<svg
   xmlns:serif="http://www.serif.com/"
   xmlns:dc="http://purl.org/dc/elements/1.1/"
   xmlns:cc="http://creativecommons.org/ns#"
   xmlns:rdf="http://www.w3.org/1999/02/22-rdf-syntax-ns#"
   xmlns:svg="http://www.w3.org/2000/svg"
   xmlns="http://www.w3.org/2000/svg"
   xmlns:sodipodi="http://sodipodi.sourceforge.net/DTD/sodipodi-0.dtd"
   xmlns:inkscape="http://www.inkscape.org/namespaces/inkscape"
   width="105mm"
   height="148mm"
   viewBox="0 0 105 148"
   version="1.1"
   id="SVGRoot"
   inkscape:version="0.92.4 (5da689c313, 2019-01-14)"
   sodipodi:docname="skull_small.svg">
  <defs
     id="defs1824" />
  <sodipodi:namedview
     id="base"
     pagecolor="#ffffff"
     bordercolor="#666666"
     borderopacity="1.0"
     inkscape:pageopacity="0.0"
     inkscape:pageshadow="2"
     inkscape:zoom="1.4"
     inkscape:cx="251.97713"
     inkscape:cy="276.99794"
     inkscape:document-units="mm"
     inkscape:current-layer="layer1"
     showgrid="false"
     inkscape:window-width="1600"
     inkscape:window-height="837"
     inkscape:window-x="-8"
     inkscape:window-y="-8"
     inkscape:window-maximized="1" />
  <metadata
     id="metadata1827">
    <rdf:RDF>
      <cc:Work
         rdf:about="">
        <dc:format>image/svg+xml</dc:format>
        <dc:type
           rdf:resource="http://purl.org/dc/dcmitype/StillImage" />
        <dc:title />
      </cc:Work>
    </rdf:RDF>
  </metadata>
  <g
     inkscape:label="Layer 1"
     inkscape:groupmode="layer"
     id="layer1">
    <g
       style="clip-rule:evenodd;fill-rule:evenodd;stroke-linejoin:round;stroke-miterlimit:2"
       transform="matrix(0.12835489,0,0,0.1114255,-14.369469,-11.424642)"
       id="g7419">
      <ellipse
         cx="540.38702"
         cy="858.66901"
         rx="77.140999"
         ry="113.839"
         id="ellipse7417" />
    </g>
    <g
       id="mandible"
       transform="matrix(0.03717206,0,0,0.03713723,9.9707857,140.83919)"
       style="clip-rule:evenodd;fill:#ffffff;fill-opacity:1;fill-rule:evenodd;stroke-linejoin:round;stroke-miterlimit:2">
      <path
         inkscape:connector-curvature="0"
         d="m 1532,-819 -11,10 -11,8 -11,7 -12,6 -26,11 -25,11 -11,5 -10,5 -10,6 -11,5 -10,4 -11,2 h -11 l -6,-1 -6,-1 -22,-7 -21,-4 -20,-3 h -24 l -32,-1 -32,-2 -32,-4 -16,-3 -16,-3 -23,-7 -23,-8 -23,-8 -24,-6 -23,-5 -24,-4 -24,-4 -23,-4 -24,-6 -25,-6 -24,-8 -23,-10 -23,-11 -21,-13 -10,-7 -10,-8 -10,-8 -8,-9 -13,-13 -11,-14 -11,-15 -9,-15 -9,-16 -7,-16 -6,-17 -5,-18 -3,-13 -2,-13 -2,-13 -2,-7 -2,-6 -9,-16 -10,-16 -10,-15 -10,-15 -14,-22 -12,-22 -12,-23 -10,-23 -4,-12 -3,-13 -3,-12 -2,-13 -2,-14 -1,-13 -1,-13 1,-13 2,-26 v -13 l -1,-12 -3,-11 -2,-6 -3,-5 -3,-4 -5,-5 -5,-4 -7,-3 -7,-3 -8,-3 -7,-2 -8,-1 h -8 -8 l -7,1 -8,2 -6,2 -7,3 -5,4 -6,5 -4,6 -3,7 -3,7 -2,9 v 17 l 1,17 2,18 1,17 v 80 l -1,23 -1,22 v 23 l 1,11 1,12 4,34 1,18 1,17 -1,31 -2,30 -2,30 -1,31 1,25 1,23 v 12 l -2,11 -3,12 -5,12 -6,12 -3,6 -2,6 -2,7 v 6 l 2,6 3,7 3,5 4,4 10,9 9,7 9,8 11,10 12,10 24,19 11,10 11,11 10,11 8,12 14,26 12,25 25,51 13,25 14,24 8,12 18,22 10,11 24,22 26,20 26,19 26,20 22,20 19,21 20,20 11,10 11,9 25,18 24,17 26,16 13,7 14,7 15,7 15,5 15,4 16,4 48,6 h 49 l 33,-2 64,-5 25,-1 h 59 l 17,-1 16,-2 16,-2 15,-4 14,-6 7,-4 6,-4 39,-26 39,-25 40,-25 39,-26 31,-22 31,-22 15,-12 14,-13 14,-13 13,-14 30,-33 15,-18 15,-18 13,-19 13,-19 10,-20 5,-10 4,-11 6,-20 5,-19 7,-20 4,-10 4,-9 6,-10 7,-10 14,-18 15,-18 17,-16 12,-11 13,-11 12,-11 5,-7 5,-6 4,-10 3,-10 1,-9 v -10 l -2,-20 -1,-10 v -10 l 1,-22 3,-21 3,-21 4,-21 2,-15 2,-13 1,-14 v -13 l -2,-26 -2,-28 -7,-52 -6,-53 -3,-26 -1,-27 v -26 l 1,-27 3,-29 2,-13 3,-14 1,-8 1,-8 v -8 l -1,-8 -1,-8 -2,-7 -3,-8 -3,-7 -4,-5 -4,-4 -4,-4 -5,-2 -5,-2 -5,-2 -11,-1 -11,1 -11,3 -11,4 -11,5 -16,9 -7,4 -6,4 -5,5 -4,6 -4,7 -4,8 -3,10 -2,9 -1,10 -1,9 1,19 1,20 v 17 l -2,17 -3,17 -4,17 -5,17 -6,17 -11,32 -11,30 -13,28 -14,28 -15,27 -8,14 -7,15 -15,30 -15,30 -8,14 -10,14 -24,32 -25,31 -27,30 z"
         style="fill:#ffffff;fill-opacity:1;fill-rule:nonzero;stroke:#000000;stroke-width:8.5px"
         id="path7421" />
    </g>
    <g
       id="zygomatic_r"
       transform="matrix(0.03717206,0,0,0.03713723,9.9707857,140.83919)"
       style="clip-rule:evenodd;fill:#ffffff;fill-opacity:1;fill-rule:evenodd;stroke-linejoin:round;stroke-miterlimit:2"
       inkscape:label="#r_zygomatic">
      <path
         inkscape:connector-curvature="0"
         d="m 466,-2125 7,-5 7,-3 7,-1 h 8 l 8,1 8,2 7,4 8,4 6,5 7,6 6,6 5,7 4,7 6,14 1,7 v 6 l -1,6 -2,12 -2,12 -1,13 2,12 3,11 10,22 7,18 5,18 4,19 3,19 2,20 3,57 -1,14 -1,17 v 38 l 3,27 6,16 4,6 5,6 7,4 5,3 6,1 h 6 l 7,-1 6,-2 6,-3 13,-6 12,-5 11,-4 5,-2 h 11 l 5,1 4,3 4,4 9,15 4,5 4,3 5,3 12,2 11,-1 h 16 l 8,1 8,4 9,6 7,6 5,8 3,7 1,8 v 8 l -1,9 -3,8 -4,8 -5,8 -5,8 -6,7 -7,7 -6,6 -7,6 -7,4 -18,11 -19,10 -38,20 -19,11 -18,11 -17,12 -16,14 -9,11 -9,11 -9,11 -5,5 -6,5 -6,5 -7,4 -15,8 -14,7 -14,7 -8,5 -9,7 -9,6 -9,5 -5,1 -6,1 -6,-1 -6,-2 -11,-5 -11,-7 -18,-12 -18,-11 -18,-12 -8,-6 -9,-8 -18,-18 -18,-16 -18,-17 -8,-10 -8,-10 -5,-8 -4,-8 -7,-15 -7,-16 -4,-8 -5,-8 -10,-16 -8,-16 -6,-16 -7,-17 -7,-15 -7,-14 -3,-7 -3,-7 -1,-8 -1,-9 v -10 l 1,-9 2,-9 3,-7 3,-7 3,-8 10,-15 5,-1 5,1 4,2 5,3 9,9 8,10 9,11 9,9 5,3 4,1 h 5 l 5,-2 3,-2 2,-2 2,-6 1,-6 v -6 l -1,-7 -2,-6 -4,-11 -2,-13 v -12 l 3,-24 5,-50 3,-25 2,-26 v -12 -12 l -1,-25 v -12 l 1,-12 2,-12 4,-11 10,-23 4,-11 3,-13 2,-12 2,-11 2,-6 3,-5 4,-5 4,-5 6,-6 7,-4 7,-2 8,-2 15,-2 15,-2 14,-3 14,-4 14,-3 7,-1 h 7 z"
         style="fill:#ffffff;fill-opacity:1;fill-rule:nonzero;stroke:#000000;stroke-width:8.5px"
         id="path7424" />
    </g>
    <g
       id="zygomatic_l"
       transform="matrix(0.03717206,0,0,0.03713723,9.9707857,140.83919)"
       style="clip-rule:evenodd;fill:#ffffff;fill-opacity:1;fill-rule:evenodd;stroke-linejoin:round;stroke-miterlimit:2"
       inkscape:label="#l_zygomatic">
      <path
         inkscape:connector-curvature="0"
         d="m 1965,-2094 7,5 7,6 7,7 7,8 13,17 10,15 6,10 6,12 4,11 8,24 2,13 5,26 3,26 4,52 3,25 2,12 v 50 l 1,13 2,12 3,11 3,5 6,8 10,6 5,1 h 5 l 5,-1 7,-3 5,-4 4,-4 2,-5 2,-6 1,-6 3,-12 2,-6 2,-5 4,-4 3,-3 4,-1 h 4 l 4,3 4,4 3,5 2,5 6,26 2,11 3,12 2,11 1,11 -1,10 -2,10 -3,10 -7,23 -4,12 -4,13 -6,24 -4,12 -4,12 -6,12 -8,12 -29,44 -16,21 -9,10 -9,10 -17,17 -21,19 -23,19 -13,9 -12,8 -13,8 -13,6 -13,5 -13,4 -13,1 h -13 l -13,-2 -6,-2 -6,-3 -18,-10 -8,-5 -8,-6 -7,-6 -7,-7 -6,-8 -6,-8 -12,-18 -12,-17 -6,-7 -7,-8 -8,-7 -9,-8 -19,-13 -21,-13 -20,-12 -22,-11 -21,-12 -21,-12 -20,-13 -19,-14 -9,-8 -9,-11 -9,-13 -8,-14 -3,-7 -2,-8 -2,-7 v -7 -7 l 1,-6 3,-7 4,-5 5,-5 6,-4 6,-3 7,-2 7,-2 7,-1 16,-1 15,1 15,3 14,4 12,4 5,3 4,3 8,5 3,2 3,-1 4,-2 4,-5 2,-5 1,-7 v -6 l -1,-6 -3,-13 -1,-6 v -5 l 2,-9 2,-6 3,-3 3,-2 h 3 l 4,2 4,3 5,4 8,9 9,10 7,9 5,5 7,3 7,1 6,-1 6,-3 6,-4 5,-4 10,-10 9,-10 4,-4 3,-4 2,-4 v -5 l -2,-6 -4,-6 -4,-5 -5,-5 -11,-7 -5,-4 -5,-4 -4,-5 -3,-6 -2,-7 -1,-7 1,-7 v -8 l 3,-15 1,-14 1,-20 2,-19 3,-19 4,-18 10,-36 11,-38 3,-11 6,-11 6,-11 8,-10 8,-9 10,-9 10,-8 11,-7 12,-6 11,-5 13,-4 12,-2 h 12 l 13,1 12,3 z"
         style="fill:#ffffff;fill-opacity:1;fill-rule:nonzero;stroke:#000000;stroke-width:8.5px"
         id="path7427" />
    </g>
    <g
       id="ethmoid-2"
       serif:id="ethmoid 2"
       transform="matrix(0.03717206,0,0,0.03713723,9.9707857,140.83919)"
       style="clip-rule:evenodd;fill:#ffffff;fill-opacity:1;fill-rule:evenodd;stroke-linejoin:round;stroke-miterlimit:2">
      <path
         inkscape:connector-curvature="0"
         d="m 1003,-1859 5,-14 3,-17 2,-17 1,-19 v -18 l -1,-18 -2,-17 -3,-15 -10,15 -8,15 -9,15 -5,8 -5,7 -6,7 -4,8 -10,19 -5,9 -6,9 -5,7 -7,5 -6,3 -5,3 -12,4 -5,3 -5,3 -5,4 -5,5 -4,5 -2,5 -2,5 -1,6 v 11 l 3,11 4,12 6,11 12,21 8,1 h 8 l 8,-2 8,-4 8,-5 8,-7 7,-7 7,-9 14,-18 11,-19 9,-17 z"
         style="fill:#ffffff;fill-opacity:1;fill-rule:nonzero;stroke:#000000;stroke-width:8.5px;stroke-linejoin:miter"
         id="path7430" />
    </g>
    <g
       id="ethmoid-1"
       serif:id="ethmoid 1"
       transform="matrix(0.03717206,0,0,0.03713723,9.9707857,140.83919)"
       style="clip-rule:evenodd;fill:#ffffff;fill-opacity:1;fill-rule:evenodd;stroke-linejoin:round;stroke-miterlimit:2">
      <path
         inkscape:connector-curvature="0"
         d="m 1056,-1642 5,-4 4,-1 h 4 l 4,3 3,4 2,5 4,14 3,15 2,14 2,12 2,8 3,6 4,3 4,2 h 4 l 5,-1 4,-2 4,-4 5,-5 8,-11 7,-11 6,-11 4,-9 2,-6 1,-6 1,-5 -1,-6 -3,-9 -4,-9 -5,-9 -4,-9 -3,-11 v -5 -6 l 2,-11 3,-11 4,-12 3,-11 2,-13 1,-7 2,-7 3,-4 1,-1 h 5 l 2,2 6,7 4,7 3,8 4,20 2,20 1,17 1,20 v 20 l -1,20 v 32 l -2,18 -2,20 -1,19 1,9 1,8 3,7 4,5 2,2 3,2 3,1 h 12 l 11,-4 4,-11 2,-12 1,-12 v -12 l -1,-13 -2,-13 -4,-23 -2,-13 -1,-12 v -23 l 2,-24 1,-25 v -11 l -1,-14 v -13 l 1,-5 2,-5 4,-5 3,-3 3,-2 h 3 l 6,2 5,5 5,7 4,8 5,15 10,27 4,14 v 13 l -2,8 -4,9 -8,16 -3,8 -3,9 -1,8 1,9 2,7 4,6 5,5 5,6 11,10 5,6 3,6 5,-2 4,-4 3,-3 4,-5 6,-11 5,-12 4,-13 3,-13 6,-21 2,-8 1,-8 1,-7 v -7 l -1,-7 -2,-6 -4,-13 -6,-12 -6,-13 -7,-13 -6,-15 -6,-15 -7,-14 -9,-14 -5,-6 -5,-5 -6,-6 -6,-4 -7,-4 -7,-3 -7,-3 -8,-2 h -9 -9 l -14,2 -14,4 -14,5 -13,7 -12,8 -11,10 -10,11 -8,12 -10,21 -10,20 -9,20 -9,19 -13,21 -6,11 -4,9 -1,4 v 3 l 1,3 2,1 h 3 l 6,-1 6,-3 9,-4 z"
         style="fill:#ffffff;fill-opacity:1;fill-rule:nonzero;stroke:#000000;stroke-width:8.5px"
         id="path7433" />
    </g>
    <g
       id="l_lacrimal"
       transform="matrix(0.03717206,0,0,0.03713723,9.9707857,140.83919)"
       style="clip-rule:evenodd;fill:#ffffff;fill-opacity:1;fill-rule:evenodd;stroke-linejoin:round;stroke-miterlimit:2">
      <path
         inkscape:connector-curvature="0"
         d="m 1403,-1821 8,12 8,11 10,11 30,30 8,11 8,12 4,9 6,11 4,12 2,10 -1,6 -3,3 -4,2 -5,1 h -5 l -6,-1 -13,-4 -12,-3 -12,-6 -13,-6 -12,-7 -12,-8 -11,-9 -10,-9 -8,-10 -6,-10 -5,-12 -5,-11 -4,-12 -7,-24 -3,-12 -4,-11 -5,-13 -4,-14 -3,-13 -3,-14 -3,-28 -2,-27 v -6 l 1,-5 1,-5 2,-5 2,-4 3,-4 4,-3 3,-3 5,-2 4,-2 5,-1 h 10 l 6,1 5,2 10,5 3,3 3,4 1,3 2,8 v 9 l -1,18 -1,8 1,9 4,23 5,24 6,24 4,11 z"
         style="fill:#ffffff;fill-opacity:1;fill-rule:nonzero;stroke:#000000;stroke-width:8.5px"
         id="path7436" />
    </g>
    <g
       id="r_lacrimal"
       transform="matrix(0.03717206,0,0,0.03713723,9.9707857,140.83919)"
       style="clip-rule:evenodd;fill:#ffffff;fill-opacity:1;fill-rule:evenodd;stroke-linejoin:round;stroke-miterlimit:2">
      <path
         inkscape:connector-curvature="0"
         d="m 1052,-1959 1,47 v 24 l -1,24 -1,6 -2,5 -4,11 -10,20 -4,11 -3,11 -3,11 -5,11 -10,19 -6,10 -7,10 -8,9 -7,9 -9,7 -8,5 -9,3 -12,4 -6,1 h -5 l -5,-2 -3,-3 -2,-4 v -4 l 1,-4 3,-4 6,-7 2,-4 2,-4 3,-9 1,-9 2,-9 3,-9 10,-22 6,-10 5,-11 15,-40 14,-41 4,-15 4,-15 2,-14 v -8 -9 -7 l 1,-7 2,-6 2,-5 4,-3 3,-3 5,-2 h 8 l 5,1 4,3 3,3 4,5 4,12 z"
         style="fill:#ffffff;fill-opacity:1;fill-rule:nonzero;stroke:#000000;stroke-width:8.5px"
         id="path7439" />
    </g>
    <g
       id="vomer"
       transform="matrix(0.03717206,0,0,0.03713723,9.9707857,140.83919)"
       style="clip-rule:evenodd;fill:#ffffff;fill-opacity:1;fill-rule:evenodd;stroke-linejoin:round;stroke-miterlimit:2">
      <path
         inkscape:connector-curvature="0"
         d="m 1148,-1358 -4,3 -4,2 -9,3 -10,2 -11,1 -21,2 -10,2 -9,3 -8,4 -7,6 -4,6 -3,6 v 6 l 1,4 2,2 2,3 4,3 4,2 5,2 8,2 8,1 h 17 l 24,3 8,3 8,5 9,7 17,14 9,7 10,6 9,3 5,1 h 8 l 4,-2 8,-6 14,-13 10,-7 10,-7 11,-6 12,-6 9,-3 10,-3 23,-5 12,-4 10,-4 9,-6 4,-3 3,-4 3,-4 1,-4 1,-3 v -3 l -1,-2 -1,-2 -5,-3 -7,-1 -8,-1 h -17 l -14,1 -10,-2 -10,-3 -10,-4 -9,-5 -10,-6 -8,-7 -7,-7 -5,-8 -3,-5 -1,-6 -3,-12 -2,-24 -1,-13 1,-17 -1,-16 v -7 l -2,-6 -3,-5 -4,-5 -6,-3 -6,-3 -7,-1 h -7 l -6,2 -6,4 -3,3 -2,6 -2,6 -1,7 -3,26 -2,11 v 13 l -2,28 -2,14 -3,13 -2,5 -3,5 -3,5 z"
         style="fill:#ffffff;fill-opacity:1;fill-rule:nonzero;stroke:#000000;stroke-width:8.5px"
         id="path7442" />
    </g>
    <g
       id="l_concha"
       transform="matrix(0.03717206,0,0,0.03713723,9.9707857,140.83919)"
       style="clip-rule:evenodd;fill:#ffffff;fill-opacity:1;fill-rule:evenodd;stroke-linejoin:round;stroke-miterlimit:2">
      <path
         inkscape:connector-curvature="0"
         d="m 1398,-1501 -4,-11 -2,-5 -3,-3 -3,-3 -3,-2 -3,-2 -3,-1 -7,1 -7,2 -8,5 -7,6 -8,7 -7,8 -6,8 -6,9 -6,9 -4,8 -3,8 -1,6 -1,8 v 8 l 1,8 1,9 2,9 3,8 4,8 4,6 4,3 5,3 5,2 6,2 h 12 l 5,-2 5,-3 3,-3 2,-3 1,-3 v -3 l -1,-6 -2,-7 -6,-12 -2,-6 -1,-6 2,-6 3,-4 4,-2 4,-1 h 10 l 4,-2 5,-2 4,-5 3,-6 2,-7 1,-7 1,-8 v -7 z"
         style="fill:#ffffff;fill-opacity:1;fill-rule:nonzero;stroke:#000000;stroke-width:8.5px"
         id="path7445" />
    </g>
    <g
       id="r_concha"
       transform="matrix(0.03717206,0,0,0.03713723,9.9707857,140.83919)"
       style="clip-rule:evenodd;fill:#ffffff;fill-opacity:1;fill-rule:evenodd;stroke-linejoin:round;stroke-miterlimit:2">
      <path
         inkscape:connector-curvature="0"
         d="m 1083,-1490 6,25 2,11 1,10 v 11 l -1,11 -1,11 -3,13 -5,17 -3,8 -4,7 -3,3 -2,2 -3,1 -3,1 -4,-1 -4,-1 -4,-3 -5,-3 -7,-7 -7,-9 -4,-9 -2,-5 v -5 -10 l 1,-5 1,-4 3,-4 2,-2 h 4 l 4,3 3,-2 2,-2 2,-6 v -7 l -1,-7 -2,-8 -3,-6 -4,-6 -5,-4 -4,-2 -4,-1 -4,-1 h -4 l -8,2 -8,3 -8,3 -7,2 h -8 l -4,-1 -4,-2 -4,-2 -3,-2 -2,-3 -2,-4 -3,-7 v -9 -9 l 2,-9 3,-9 4,-7 6,-7 7,-7 9,-6 10,-5 10,-4 11,-2 5,-1 4,1 5,1 4,1 7,5 8,8 7,8 12,20 5,10 4,10 z"
         style="fill:#ffffff;fill-opacity:1;fill-rule:nonzero;stroke:#000000;stroke-width:8.5px"
         id="path7448" />
    </g>
    <g
       id="l_parietal"
       transform="matrix(0.03717206,0,0,0.03713723,9.9707857,140.83919)"
       style="clip-rule:evenodd;fill:#ffffff;fill-opacity:1;fill-rule:evenodd;stroke-linejoin:round;stroke-miterlimit:2">
      <path
         inkscape:connector-curvature="0"
         d="m 1848,-2999 1,-3 1,-2 4,-4 5,-2 6,-3 6,-1 7,-1 h 11 l 7,2 6,3 5,4 5,5 9,12 9,11 31,39 29,39 27,40 27,42 34,56 16,30 6,15 5,16 10,36 9,37 7,37 3,19 3,18 4,33 6,34 5,33 4,34 1,16 2,17 5,33 2,34 -1,17 -2,16 -12,-2 -10,-1 h -7 l -6,3 -5,3 -5,6 -12,17 -4,4 -4,4 -4,3 -5,2 -10,4 -11,2 -12,1 -12,-1 -11,-1 -11,-3 -4,-1 -4,-2 -3,-3 -3,-2 -5,-7 -3,-8 -2,-8 -2,-9 -2,-9 -2,-9 -6,-16 -6,-17 -13,-32 -13,-33 -5,-16 -5,-17 -5,-19 -4,-20 -5,-40 -6,-40 -3,-20 -4,-19 -5,-22 -3,-22 -2,-22 -2,-22 -2,-45 -1,-22 -3,-23 -3,-24 -2,-24 -3,-24 -2,-12 -3,-12 -5,-15 -7,-15 -6,-16 -5,-15 -1,-10 -2,-10 -2,-20 -1,-9 -4,-9 -2,-5 -3,-3 -3,-4 -4,-3 z"
         style="fill:#ffffff;fill-opacity:1;fill-rule:nonzero;stroke:#000000;stroke-width:8.5px"
         id="path7451" />
    </g>
    <g
       id="r_parietal"
       transform="matrix(0.03717206,0,0,0.03713723,9.9707857,140.83919)"
       style="clip-rule:evenodd;fill:#ffffff;fill-opacity:1;fill-rule:evenodd;stroke-linejoin:round;stroke-miterlimit:2">
      <path
         inkscape:connector-curvature="0"
         d="m 627,-3007 4,-8 4,-9 3,-10 2,-10 2,-10 v -10 -10 l -2,-9 -2,-5 -2,-5 -3,-3 -3,-3 -4,-2 h -3 -4 -4 l -8,3 -9,4 -16,11 -43,29 -42,31 -20,16 -20,17 -19,17 -19,18 -18,19 -18,19 -17,20 -15,21 -15,21 -14,22 -12,23 -11,24 -9,19 -8,20 -7,20 -7,21 -11,41 -10,42 -8,42 -6,43 -4,43 -2,42 -4,157 6,-1 4,-2 4,-1 3,-1 h 2 l 2,3 3,5 2,7 2,9 2,10 2,9 2,5 6,6 4,1 4,2 4,3 2,2 2,4 2,8 2,7 4,6 4,2 4,1 5,1 5,2 9,6 9,8 17,16 6,-12 4,-12 2,-13 2,-14 2,-27 1,-13 2,-13 7,-46 9,-46 10,-45 11,-45 15,-47 15,-47 16,-46 14,-47 8,-23 9,-21 11,-20 12,-19 24,-38 12,-20 11,-20 8,-17 7,-17 6,-18 5,-18 10,-35 5,-18 6,-18 4,-7 4,-8 10,-13 10,-12 5,-7 z"
         style="fill:#ffffff;fill-opacity:1;fill-rule:nonzero;stroke:#000000;stroke-width:8.5px"
         id="path7454" />
    </g>
    <g
       id="temporal_l"
       transform="matrix(0.03717206,0,0,0.03713723,9.9707857,140.83919)"
       style="clip-rule:evenodd;fill:#ffffff;fill-opacity:1;fill-rule:evenodd;stroke-linejoin:round;stroke-miterlimit:2"
       inkscape:label="#l_temporal">
      <path
         inkscape:connector-curvature="0"
         d="m 2158,-2317 h -2 l -3,2 -8,7 -10,10 -11,13 -21,26 -13,18 -3,5 -3,6 -2,6 -1,6 -1,13 1,13 2,14 9,39 2,14 -1,13 -2,13 -4,11 -5,12 -6,11 -13,25 -7,10 -7,10 -6,10 -5,10 -3,10 -1,10 -1,10 v 11 l 2,21 1,21 v 25 l 1,25 3,50 v 12 l -1,12 -2,25 -3,24 v 25 l 2,20 2,8 3,7 8,8 3,1 4,2 h 19 l 5,-2 9,-4 10,-4 4,-1 h 5 l 5,1 4,2 7,6 4,3 3,3 5,2 6,1 v -5 -6 l -1,-10 -4,-10 -4,-11 -4,-11 -3,-11 -2,-11 v -5 l 1,-6 3,-10 3,-9 5,-9 5,-8 10,-16 5,-9 4,-8 4,-13 3,-14 2,-14 1,-15 2,-29 v -14 l 2,-14 4,-39 4,-39 3,-39 v -20 -20 l -2,-34 -2,-34 -6,-69 -2,-21 v -22 l -2,-21 -2,-11 -2,-10 z"
         style="fill:#ffffff;fill-opacity:1;fill-rule:nonzero;stroke:#000000;stroke-width:8.5px"
         id="path7457" />
    </g>
    <g
       id="temporal_r"
       transform="matrix(0.03717206,0,0,0.03713723,9.9707857,140.83919)"
       style="clip-rule:evenodd;fill:#ffffff;fill-opacity:1;fill-rule:evenodd;stroke-linejoin:round;stroke-miterlimit:2"
       inkscape:label="#r_temporal">
      <path
         inkscape:connector-curvature="0"
         d="m 207,-2178 v 71 l 1,35 3,35 2,23 4,92 2,23 4,23 5,23 7,25 9,26 11,24 12,24 12,18 4,5 5,5 6,4 6,3 7,2 h 11 l 15,-1 15,-1 6,-1 4,-2 3,-2 3,-4 2,-5 3,-6 3,-13 2,-15 3,-29 1,-22 3,-20 1,-20 1,-20 2,-20 2,-11 3,-13 1,-12 v -6 -6 l -3,-6 -3,-5 -4,-4 -5,-4 -6,-3 -6,-3 -14,-5 -13,-6 -13,-6 -6,-4 -5,-4 -5,-6 -3,-6 -3,-7 -2,-9 -2,-18 -2,-18 -3,-17 -3,-18 -2,-17 v -18 l 1,-18 v -9 -7 l -3,-16 -3,-15 -3,-16 -1,-7 v -8 l 1,-14 2,-15 2,-15 v -14 -8 l -1,-8 -2,-8 -3,-7 -4,-6 -5,-4 -5,-3 -5,-2 -4,-1 h -4 l -4,1 -4,1 -3,2 -4,2 -5,7 -5,9 -4,9 -4,11 -2,12 -3,12 -2,23 -2,20 -1,14 z"
         style="fill:#ffffff;fill-opacity:1;fill-rule:nonzero;stroke:#000000;stroke-width:8.5px"
         id="path7460" />
    </g>
    <g
       id="maxilla_r"
       transform="matrix(0.03717206,0,0,0.03713723,9.9707857,140.83919)"
       style="clip-rule:evenodd;fill:#ffffff;fill-opacity:1;fill-rule:evenodd;stroke-linejoin:round;stroke-miterlimit:2"
       inkscape:label="#r_maxilla">
      <path
         inkscape:connector-curvature="0"
         d="m 1065,-2029 1,-11 1,-10 4,-9 4,-7 3,-3 3,-2 3,-1 4,-1 h 4 l 5,1 5,2 5,3 4,16 1,16 -1,18 -2,17 -7,36 -3,16 -3,16 -4,31 -2,31 -3,62 -2,30 -4,29 -4,27 -6,28 -7,27 -9,27 -10,27 -12,27 -10,24 -9,24 -6,24 -6,25 -4,24 -3,25 -2,26 -1,25 v 16 l 2,13 4,12 6,10 7,9 8,7 10,6 10,5 12,5 11,4 25,6 26,6 24,6 9,3 8,4 7,4 6,4 5,5 5,6 11,14 12,18 3,7 1,8 -1,9 v 81 l 1,33 1,32 3,22 1,12 v 25 l -3,12 -2,5 -2,5 -3,4 -4,4 -5,3 -5,2 -6,1 -6,1 h -14 l -15,-2 -16,-2 -14,-3 -23,-5 -41,-5 -21,-3 -20,-4 -12,-3 -11,-4 -22,-9 -22,-9 -12,-4 -11,-3 -31,-8 -32,-8 -31,-9 -30,-11 -20,-9 -11,-5 -11,-6 -11,-7 -10,-7 -8,-8 -3,-3 -3,-4 -2,-6 -1,-5 -2,-11 1,-12 1,-13 5,-24 1,-12 v -11 l -3,-24 -2,-11 -3,-11 -3,-10 -4,-11 -5,-10 -6,-11 -8,-11 -8,-9 -9,-9 -10,-9 -11,-7 -11,-7 -11,-6 -12,-5 -21,-8 -22,-9 -11,-3 -11,-3 -11,-3 -11,-1 h -6 -7 l -10,1 h -4 l -4,-1 -4,-2 -2,-2 -2,-3 v -5 l 1,-3 2,-2 5,-4 5,-4 1,-2 1,-2 v -3 l -1,-2 -4,-6 -3,-5 -1,-4 v -3 l 5,-2 2,-2 1,-1 v -4 l -2,-4 -6,-8 -6,-7 6,-1 4,-1 2,-3 2,-3 1,-4 v -4 l -1,-9 -1,-9 v -4 l 1,-4 2,-3 2,-3 4,-3 5,-1 1,-12 3,-11 5,-10 6,-8 8,-8 9,-6 10,-6 10,-4 12,-4 11,-4 12,-2 12,-2 24,-3 22,-1 h 23 l 21,-1 22,-2 10,-2 12,-3 8,-2 9,-5 10,-5 9,-7 4,-4 3,-4 2,-4 2,-4 v -4 -5 l -2,-5 -3,-4 2,-3 1,-3 -7,-7 -3,-3 -4,-3 -6,-2 -7,-1 -7,-1 -4,-1 -2,-3 -3,-4 -5,-12 -7,-22 -3,-9 -1,-7 1,-5 3,-5 4,-4 6,-3 15,-9 11,-8 11,-9 19,-18 14,-13 15,-12 16,-11 16,-10 11,-5 6,-1 h 2 l 1,1 1,3 1,11 1,6 2,3 2,2 3,2 3,1 h 8 l 6,-1 h 3 l 2,1 4,4 5,7 7,12 4,11 3,11 1,12 v 12 l -2,13 v 14 l 1,3 1,1 2,1 h 2 l 6,-2 7,-3 12,-8 7,-5 16,-17 15,-18 7,-10 7,-10 6,-11 5,-11 10,-24 9,-23 3,-10 2,-11 1,-10 1,-11 -1,-22 v -21 -23 l 3,-22 2,-23 z"
         style="fill:#ffffff;fill-opacity:1;fill-rule:nonzero;stroke:#000000;stroke-width:8.5px"
         id="path7463" />
    </g>
    <g
       id="maxilla_l"
       transform="matrix(0.03717206,0,0,0.03713723,9.9707857,140.83919)"
       style="clip-rule:evenodd;fill:#ffffff;fill-opacity:1;fill-rule:evenodd;stroke-linejoin:round;stroke-miterlimit:2"
       inkscape:label="#l_maxilla">
      <path
         inkscape:connector-curvature="0"
         d="m 1405,-1815 13,17 14,16 14,17 12,16 21,24 6,8 2,9 2,14 2,13 3,6 h -3 -4 l -8,-2 -5,-6 -6,-5 -14,-10 -7,-8 -8,-9 -8,-9 -4,-3 -4,-2 v -3 -3 l -12,-9 -8,-8 -6,-10 -7,-13 -7,-16 -8,-15 -8,-16 -7,-15 -9,-23 -8,-24 -6,-24 -2,-12 -1,-12 -1,-14 v -15 l 1,-28 1,-29 v -14 l -1,-15 -1,-5 -2,-6 -2,-5 -4,-4 -4,-4 -5,-2 -6,-1 -6,1 -5,2 -5,3 -3,5 -2,5 -2,11 -2,11 -4,24 -2,24 -2,24 -1,24 v 14 l 1,14 2,27 4,27 3,28 3,26 4,26 3,27 3,26 4,46 3,24 2,11 3,11 35,95 35,93 3,11 3,12 2,13 1,13 v 12 l -2,13 -4,12 -5,11 -4,6 -4,5 -9,8 -10,7 -12,6 -24,10 -12,5 -11,5 -11,5 -12,5 -23,10 -11,6 -11,7 -4,4 -4,4 -4,5 -3,6 -3,8 -3,8 -1,8 v 9 l 2,16 2,17 2,18 v 37 l 1,19 1,13 -1,14 -1,14 -1,13 1,13 1,6 2,6 3,6 4,5 5,5 5,4 10,6 10,4 11,3 12,3 11,2 12,1 22,1 h 14 l 14,-2 13,-2 13,-4 26,-6 14,-3 13,-2 19,-2 19,-1 20,-1 18,-2 15,-4 15,-5 28,-10 20,-6 16,-8 14,-8 7,-4 5,-5 5,-6 5,-6 4,-7 3,-7 3,-8 3,-9 4,-21 2,-15 2,-16 2,-32 3,-16 4,-15 6,-15 3,-7 5,-6 10,-13 11,-13 12,-12 13,-12 13,-11 14,-10 14,-9 14,-9 12,-5 12,-3 13,-2 13,-1 26,-3 13,-1 12,-3 h 9 l 8,1 h 3 l 2,-2 1,-2 1,-2 v -2 l -1,-2 -1,-3 v -1 -2 l -1,-5 1,-12 1,-7 3,-6 1,-2 2,-2 h 3 l 3,2 -6,-3 -6,-2 -7,-1 h -6 l 6,-6 2,-3 2,-2 v -3 -2 l -3,-2 -4,-2 2,-4 2,-4 2,-5 1,-4 v -2 l -1,-2 -3,-3 -2,-2 -2,-2 1,-8 2,-8 1,-7 1,-8 -1,-12 v -6 -7 h -7 l -12,2 -12,2 -4,2 -2,1 3,-4 4,-4 8,-9 3,-4 3,-4 2,-5 1,-4 -8,-3 -8,-2 -16,-3 -17,-2 -16,-1 -17,-1 -17,-1 -16,-3 -8,-3 -8,-2 -13,-6 -13,-6 -25,-14 -24,-13 -13,-6 -12,-6 -13,-6 -12,-8 -12,-8 -12,-8 -7,-3 -8,-4 -2,-3 -2,-3 v -4 l 2,-5 2,-3 3,-3 7,-3 9,-3 9,-1 10,-1 10,1 15,1 14,2 5,-1 4,-1 3,-2 1,-4 1,-6 v -7 l -2,-12 -1,-11 -2,-12 -1,-12 -1,-12 -1,-5 -1,-4 -1,-3 -3,-4 -9,-8 -21,-15 -21,-13 -12,-7 -11,-7 -22,-16 -41,-33 -11,-7 -12,-5 -12,-5 -12,-5 -12,-7 -10,-8 -10,-9 -10,-10 -6,-7 -6,-8 -10,-16 -9,-17 -6,-8 -6,-8 -3,-3 -4,-2 -4,-3 -5,-1 -4,-1 -5,1 -4,1 -4,4 -4,5 -1,4 1,4 2,2 8,4 6,4 4,5 3,5 4,10 3,11 2,24 v 12 l -1,23 v 12 l 1,11 2,11 2,6 2,5 5,9 z"
         style="fill:#ffffff;fill-opacity:1;fill-rule:nonzero;stroke:#000000;stroke-width:8.5px"
         id="path7466" />
    </g>
    <g
       id="nasal_r"
       transform="matrix(0.03717206,0,0,0.03713723,9.9707857,140.83919)"
       style="clip-rule:evenodd;fill:#ffffff;fill-opacity:1;fill-rule:evenodd;stroke-linejoin:round;stroke-miterlimit:2"
       inkscape:label="#r_nasal">
      <path
         inkscape:connector-curvature="0"
         d="m 1193,-2141 2,8 1,9 1,10 v 10 l -2,19 -2,18 -3,38 -3,38 -2,55 -2,55 1,18 1,20 v 11 l -1,9 -2,10 -3,7 -4,6 -5,4 -10,6 -5,3 -5,4 -4,6 -3,7 -5,15 -6,11 -8,12 -9,13 -7,9 -8,9 -18,17 -17,17 -8,9 -7,10 -4,-7 -3,-7 -2,-9 -1,-9 -1,-9 1,-10 3,-21 5,-21 5,-20 5,-18 4,-16 7,-35 7,-35 6,-36 4,-35 4,-52 2,-53 1,-10 2,-9 3,-9 5,-8 5,-7 6,-7 6,-7 8,-6 15,-11 17,-9 17,-9 z"
         style="fill:#ffffff;fill-opacity:1;fill-rule:nonzero;stroke:#000000;stroke-width:8.5px"
         id="path7469" />
    </g>
    <g
       id="nasal_l"
       transform="matrix(0.03854217,0,0,0.03713723,8.3513785,140.83919)"
       style="clip-rule:evenodd;fill:#ffffff;fill-opacity:1;fill-rule:evenodd;stroke-linejoin:round;stroke-miterlimit:2"
       inkscape:label="#l_nasal">
      <path
         inkscape:connector-curvature="0"
         d="m 1199,-2129 -7,88 -6,88 -1,39 -1,39 -1,17 -1,18 v 8 l 1,9 2,8 2,9 5,10 2,2 h 3 l 4,-1 4,-1 h 9 l 6,2 5,2 4,3 3,4 3,5 5,10 3,10 4,13 6,10 7,10 9,11 12,20 8,8 4,2 6,2 h 6 l 5,-2 2,-4 2,-4 v -6 l -1,-6 -2,-11 -3,-7 -3,-6 -6,-12 -6,-12 -3,-6 -2,-6 -2,-11 -1,-12 -1,-23 -4,-28 -5,-27 -4,-28 -2,-14 -1,-14 v -11 l 1,-12 2,-25 3,-24 4,-24 5,-25 3,-14 3,-14 1,-14 -1,-14 -1,-6 -2,-6 -3,-6 -3,-5 -5,-5 -6,-4 -6,-4 -7,-3 -13,-4 -13,-4 -15,-3 h -5 l -4,1 -3,2 -2,4 -1,6 z"
         style="fill:#ffffff;fill-opacity:1;fill-rule:nonzero;stroke:#000000;stroke-width:8.5px"
         id="path7472" />
    </g>
    <g
       id="sphenoid1"
       transform="matrix(0.03717206,0,0,0.03713723,9.9707857,140.83919)"
       style="clip-rule:evenodd;fill:#ffffff;fill-opacity:1;fill-rule:evenodd;stroke-linejoin:round;stroke-miterlimit:2">
      <path
         inkscape:connector-curvature="0"
         d="m 551,-1985 2,7 2,6 18,36 4,14 3,16 2,30 v 25 l -1,25 v 38 l 1,13 1,8 2,6 3,6 4,5 4,3 5,3 5,2 6,1 h 12 l 14,-3 13,-5 14,-6 6,-4 6,-4 12,-9 12,-8 6,-3 7,-3 11,-2 11,-1 h 22 l 11,-1 11,-1 10,-3 10,-4 12,-9 11,-9 12,-9 6,-4 7,-4 13,-6 13,-6 12,-7 5,-4 4,-4 4,-5 3,-5 3,-5 1,-6 1,-6 v -7 l -2,-8 -3,-8 -5,-13 -5,-9 -7,-9 -9,-10 -9,-9 -8,-9 -15,-20 -14,-20 -14,-20 -7,-8 -9,-10 -3,-5 -3,-5 -2,-5 -1,-5 1,-8 1,-3 2,-2 1,-1 3,-1 5,-1 5,1 6,2 6,3 10,8 4,6 9,11 7,12 7,13 7,12 8,12 4,5 5,5 5,4 6,4 8,4 7,1 15,2 7,1 6,2 3,2 4,6 2,4 2,10 1,14 1,7 1,6 3,5 1,1 2,1 h 4 l 4,-3 6,-4 5,-5 10,-11 3,-5 1,-4 v -7 -2 l -2,-2 -4,-5 -5,-4 -11,-10 -6,-5 -6,-5 -4,-6 -1,-3 v -3 l 1,-3 1,-3 3,-3 4,-3 4,-2 3,-1 3,-1 3,1 4,2 4,3 3,5 2,6 3,10 2,6 2,5 3,4 3,2 3,1 3,-1 3,-3 3,-5 3,-7 1,-9 v -9 l -1,-10 -1,-11 -2,-9 -5,-16 -5,-13 -6,-12 -7,-12 -7,-10 -9,-10 -9,-10 -9,-8 -11,-8 -11,-6 -11,-6 -12,-5 -12,-5 -13,-3 -14,-2 -14,-2 h -14 l -29,-1 -28,-2 -29,-2 -29,-1 -14,1 -15,1 -15,3 -15,3 -18,7 -18,8 -35,18 -18,7 -8,4 -8,5 -7,5 -5,6 -1,4 -2,4 v 10 l 1,25 v 52 l 1,12 z"
         style="fill:#ffffff;fill-opacity:1;fill-rule:nonzero;stroke:#000000;stroke-width:8.5px"
         id="path7475" />
    </g>
    <g
       id="sphenoid2"
       transform="matrix(0.03717206,0,0,0.03713723,9.9707857,140.83919)"
       style="clip-rule:evenodd;fill:#ffffff;fill-opacity:1;fill-rule:evenodd;stroke-linejoin:round;stroke-miterlimit:2">
      <path
         inkscape:connector-curvature="0"
         d="m 2076,-2262 -9,-3 h -8 l -7,1 -6,4 -6,5 -5,7 -5,8 -4,9 -8,18 -6,19 -7,29 -4,14 -2,14 -4,29 v 8 l 2,14 2,8 5,14 7,14 15,27 7,14 5,15 6,-1 5,-2 5,-3 4,-5 5,-5 4,-6 7,-14 6,-16 5,-15 7,-23 7,-27 5,-24 2,-13 1,-13 1,-13 -1,-14 -1,-21 -2,-11 -2,-10 -4,-10 -6,-9 -3,-4 -4,-3 -4,-4 z"
         style="fill:#ffffff;fill-opacity:1;fill-rule:nonzero;stroke:#000000;stroke-width:8.5px"
         id="path7478" />
    </g>
    <g
       id="sphenoid3"
       transform="matrix(0.03717206,0,0,0.03713723,9.9707857,140.83919)"
       style="clip-rule:evenodd;fill:#ffffff;fill-opacity:1;fill-rule:evenodd;stroke-linejoin:round;stroke-miterlimit:2">
      <path
         inkscape:connector-curvature="0"
         d="m 373,-2137 2,-10 -1,-11 -2,-10 -3,-10 -4,-10 -6,-9 -7,-7 -8,-6 -7,-5 -9,-4 -10,-4 -10,-3 -10,-2 -9,1 -5,1 -4,2 -4,2 -4,3 -4,7 -3,7 -3,9 -2,10 -2,19 -1,16 v 23 l 2,11 1,11 5,21 6,22 5,18 4,18 3,9 3,8 10,16 6,6 5,4 5,2 4,2 h 5 l 4,-1 4,-2 3,-3 4,-3 3,-5 5,-10 3,-11 3,-12 5,-28 5,-27 z"
         style="fill:#ffffff;fill-opacity:1;fill-rule:nonzero;stroke:#000000;stroke-width:8.5px"
         id="path7481" />
    </g>
    <g
       id="sphenoid4"
       transform="matrix(0.03717206,0,0,0.03713723,9.9707857,140.83919)"
       style="clip-rule:evenodd;fill:#ffffff;fill-opacity:1;fill-rule:evenodd;stroke-linejoin:round;stroke-miterlimit:2">
      <path
         inkscape:connector-curvature="0"
         d="m 1746,-1791 10,2 8,1 h 7 l 6,-1 6,-2 4,-3 4,-5 2,-5 3,-5 1,-7 2,-13 1,-16 v -15 l 1,-10 1,-9 2,-7 3,-6 8,-13 4,-7 4,-8 3,-8 2,-7 3,-17 4,-32 2,-12 4,-13 10,-26 4,-13 3,-13 1,-6 v -6 l -1,-6 -2,-6 -4,-8 -5,-8 -7,-6 -8,-5 -9,-4 -9,-3 -9,-1 -9,-1 -24,-2 -11,-1 -11,-1 -11,-3 -12,-3 -15,-5 -16,-5 -15,-4 -8,-1 h -8 -25 l -24,2 -25,2 -25,3 -24,4 -25,5 -24,5 -24,6 -20,5 -20,6 -19,6 -9,5 -9,4 -8,5 -7,6 -6,7 -5,7 -4,9 -2,10 -1,10 v 12 l 1,7 2,6 2,5 2,4 8,8 10,7 8,5 5,6 3,4 2,5 1,12 1,6 2,8 3,9 3,5 4,3 h 3 l 4,-2 4,-3 3,-5 4,-6 7,-14 6,-14 6,-11 3,-4 2,-2 6,-3 6,-2 h 5 l 4,1 4,3 3,4 2,5 1,7 -1,8 -2,6 -3,5 -4,4 -4,4 -6,4 -11,8 -7,5 -5,5 -3,5 -1,5 1,5 4,5 6,5 8,5 5,3 5,2 h 10 l 5,-2 4,-3 3,-4 3,-5 2,-5 1,-5 1,-12 1,-12 2,-5 2,-5 3,-5 3,-4 4,-2 4,-2 9,-4 9,-4 10,-7 8,-8 7,-9 7,-9 12,-21 11,-20 6,-14 6,-17 3,-8 4,-7 4,-7 5,-4 4,-2 3,-1 h 6 l 5,2 4,3 9,8 5,3 6,1 3,7 v 7 l -1,7 -3,7 -4,7 -5,7 -12,14 -13,13 -14,11 -22,19 -17,16 -17,16 -8,9 -7,10 -6,10 -4,10 -3,10 -1,10 v 10 l 2,10 4,9 2,4 3,4 4,3 4,2 4,3 5,1 7,1 h 6 l 13,-2 13,-3 12,-2 h 8 l 6,1 h 7 l 5,2 12,4 12,6 12,7 11,6 21,14 11,7 10,6 12,6 z"
         style="fill:#ffffff;fill-opacity:1;fill-rule:nonzero;stroke:#000000;stroke-width:8.5px"
         id="path7484" />
    </g>
    <g
       id="frontal"
       transform="matrix(0.03717206,0,0,0.03713723,9.9707857,140.83919)"
       style="clip-rule:evenodd;fill:#ffffff;fill-opacity:1;fill-rule:evenodd;stroke-linejoin:round;stroke-miterlimit:2">
      <path
         inkscape:connector-curvature="0"
         d="m 329,-2232 v -11 -10 l -2,-6 -3,-6 -3,-5 -2,-4 v -5 -6 l 2,-13 3,-14 1,-12 -1,-26 1,-25 2,-56 1,-28 3,-28 v -13 l -1,-13 -2,-12 -3,-13 -3,-12 -2,-12 -1,-13 1,-13 3,-17 3,-19 4,-18 3,-9 4,-8 2,-3 3,-3 7,-7 7,-6 3,-5 1,-2 -1,-3 -2,-6 -4,-6 -5,-6 -6,-6 -4,-7 -3,-6 v -4 -3 l 6,-2 7,-1 h 13 v -3 l -1,-3 -3,-5 -3,-6 -2,-5 20,-1 9,-1 5,-1 4,-2 -3,-4 -5,-3 -12,-9 -4,-5 -3,-5 v -2 -3 l 2,-3 2,-3 3,-1 3,-1 h 17 l 2,-2 2,-2 v -3 l -1,-5 -1,-6 -1,-6 h 7 l 8,-1 7,-2 6,-4 -7,-3 -6,-5 -2,-3 -2,-3 v -4 -4 l 1,-4 2,-3 3,-2 3,-1 7,-1 7,1 h 9 l 2,-9 2,-10 3,-9 3,-10 5,-10 5,-8 7,-8 7,-6 3,-2 3,-1 h 9 l 3,-1 3,-2 3,-3 2,-5 1,-7 1,-8 1,-5 6,-13 7,-13 16,-23 7,-9 7,-8 14,-16 15,-13 16,-14 18,-15 9,-7 10,-7 30,-19 30,-17 31,-16 32,-16 41,-20 41,-19 21,-8 21,-9 21,-7 21,-7 30,-9 30,-10 59,-21 15,-4 14,-4 14,-3 14,-2 15,-1 14,-1 30,-1 32,1 h 32 l 34,-1 33,1 17,1 17,2 18,2 17,3 17,4 17,5 35,8 34,10 68,24 34,10 26,8 26,11 50,24 25,15 50,32 24,17 17,12 17,13 33,26 24,16 12,9 5,5 5,6 8,10 7,11 15,23 14,24 14,23 14,24 14,25 4,6 5,7 4,7 3,6 1,5 -1,5 -1,4 -1,4 -4,8 -1,4 -1,5 h 4 l 5,-1 5,-1 h 4 l 6,3 1,3 v 8 l -2,4 -3,3 -5,8 -2,4 -2,3 31,1 -1,4 v 3 l -4,6 -4,6 -6,5 -5,6 -5,5 -3,6 v 7 l 7,-1 10,-1 11,-2 10,-1 5,1 4,2 3,2 2,4 v 5 l -1,3 -1,3 -4,4 -6,5 -5,5 -5,5 -4,5 -1,3 v 2 h 5 l 7,-2 8,-1 h 10 l 3,2 2,2 1,3 -1,4 -2,3 -7,9 -8,10 -3,4 -2,3 h 5 l 8,-1 9,-1 h 15 l 2,1 1,2 v 3 l -1,3 -6,9 -8,9 -2,4 -2,4 h 12 l 11,1 -1,4 -2,5 -5,7 -6,7 -3,4 -2,5 h 5 l 4,1 v 3 l -2,4 -5,7 -4,7 -2,3 -2,4 4,1 3,2 3,3 2,3 2,8 1,9 v 10 l -1,10 v 18 l 2,18 3,17 4,17 2,17 2,18 v 19 l -1,19 -1,18 -4,37 -5,37 -4,34 -5,35 -3,18 -4,17 -4,17 -6,15 -3,6 -3,5 -9,14 -8,13 -2,6 -1,5 v 4 l 1,3 4,6 5,6 4,6 4,7 6,24 -2,1 -3,1 -6,-1 -5,-2 -4,-3 v 9 l 1,4 2,4 -8,-3 -8,-3 -1,10 -1,10 -3,-3 -2,-2 -2,-2 -2,9 v 9 l -4,-3 -3,-1 h -3 l -3,1 -6,4 -3,2 -3,1 -4,-6 -4,-7 -2,-8 -1,-8 -2,-7 -1,-7 -3,-7 -4,-6 -3,-2 -5,-2 -15,-7 -7,-3 -6,-4 -3,-4 -1,-1 1,-2 -7,9 -7,5 -3,2 -3,1 -7,1 -7,-2 -8,-3 -20,-7 -19,-8 -9,-4 -10,-3 -9,-2 -9,-1 -10,1 -11,3 -6,3 -6,3 -11,8 -5,3 -6,3 -6,1 -7,1 -6,-1 -5,-1 -5,-3 -4,-3 -7,-8 -5,-3 -4,-4 -8,-4 -10,-5 -11,-5 -8,-2 h -6 l -8,1 -6,1 h -6 l -5,-2 -2,-1 -2,-2 -7,-1 -6,-2 -5,-1 h -7 -8 l -8,1 -15,2 -16,2 -16,2 -15,4 -7,3 -8,4 -13,6 -16,8 -17,7 -18,9 -16,10 -7,6 -7,5 -5,6 -4,7 -4,6 -1,8 v 6 l 2,8 1,9 2,10 v 13 l -1,3 -2,3 -3,3 -3,1 -5,1 -4,-1 -4,-3 -5,-4 -4,-6 -8,-11 -6,-9 -19,-21 -19,-21 -3,-4 -2,-6 -4,-12 -4,-12 -3,-5 -5,-6 -10,-9 -13,-10 -13,-9 -7,-3 -5,-3 -7,-2 h -7 -7 l -7,1 -6,3 -7,3 -12,8 -12,10 -11,10 -11,10 -10,8 -23,18 -12,10 -10,10 -4,6 -3,6 -1,6 -1,6 -1,13 -1,6 -2,7 v 7 l -1,3 v 3 l -2,1 -1,1 -4,-1 -4,-3 -7,-7 -4,-4 -14,-7 -5,-3 -4,-2 -2,-3 -2,-4 -2,-7 -1,-8 -2,-16 -4,-15 -6,-14 -9,-14 -8,-9 -8,-7 -9,-5 -10,-4 -10,-3 -11,-2 -11,-2 -12,-3 -13,-5 -14,-5 -14,-4 -8,-2 -7,-1 h -7 l -7,2 -6,2 -6,3 -11,7 -11,9 -11,10 -6,4 -6,3 -7,3 -7,2 -7,1 h -8 l -7,-1 -7,-3 -5,-4 -4,-5 -8,-12 -8,-11 -5,-6 -5,-4 -5,-3 -5,-1 h -5 -6 l -14,3 -20,6 -18,6 -18,8 -19,9 -7,5 -6,5 -6,4 -6,4 -7,3 -6,1 -7,-1 -8,-3 -13,-7 -5,-3 -5,-2 h -6 -6 l -6,2 -8,3 -7,3 -6,4 -4,4 -3,4 -2,6 -1,6 -1,15 h -4 l -4,-1 -4,-1 -3,-2 -2,-3 -2,-4 -1,-4 -1,-4 -3,1 -2,2 -5,4 -4,5 -5,3 v -7 l -1,-2 -2,-3 -2,-2 h -2 l -3,-1 -3,1 v -4 -3 l -1,-2 -2,-2 -2,-1 h -3 l -3,1 -4,2 -1,-3 -2,-3 -2,-2 -2,-1 -6,-1 h -6 -6 l -5,-1 -3,-1 -2,-2 -1,-2 -1,-4 3,-1 3,-2 5,-4 -6,1 h -2 l -1,-1 -2,-3 -1,-4 v -10 -5 -3 l -3,-4 -3,-5 -9,-8 -9,-8 -4,-4 -4,-4 -8,-12 -5,-6 -5,-5 4,-4 3,-5 2,-6 2,-5 1,-13 z"
         style="fill:#ffffff;fill-opacity:1;fill-rule:nonzero;stroke:#000000;stroke-width:8.5px"
         id="path7487" />
    </g>
    <g
       style="clip-rule:evenodd;fill-rule:evenodd;stroke-linejoin:round;stroke-miterlimit:2"
       transform="matrix(0.03717206,0,0,0.03713723,9.9707857,140.83919)"
       id="g7492">
      <path
         inkscape:connector-curvature="0"
         d="m 725,-955 9,-10 4,-6 4,-6 3,-6 2,-6 v -7 -7 l -2,-5 -3,-5 -4,-5 -5,-5 -5,-4 -6,-3 -6,-1 h -6 l -4,1 -4,2 -3,3 -3,4 -5,8 -4,10 -3,10 -1,10 -1,10 v 8 l 2,7 2,8 3,7 3,2 2,2 5,2 h 4 l 4,-2 4,-2 8,-7 z"
         style="fill:#ffffff;fill-rule:nonzero;stroke:#000000;stroke-width:8.5px"
         id="path7490" />
    </g>
    <g
       style="clip-rule:evenodd;fill-rule:evenodd;stroke-linejoin:round;stroke-miterlimit:2"
       transform="matrix(0.03717206,0,0,0.03713723,9.9707857,140.83919)"
       id="g7496">
      <path
         inkscape:connector-curvature="0"
         d="m 824,-919 -2,-6 -3,-5 -5,-3 -6,-2 -6,-1 -6,1 -6,2 -5,4 -3,4 -3,4 -6,10 -4,11 -3,10 -3,17 -1,18 1,18 2,18 3,1 1,2 4,6 6,15 3,7 4,6 2,2 3,1 h 3 l 3,-1 2,-2 2,-2 3,-7 1,-9 v -10 -20 l -1,-15 2,-9 3,-10 8,-18 4,-9 2,-9 2,-9 z"
         style="fill:#ffffff;fill-rule:nonzero;stroke:#000000;stroke-width:8.5px"
         id="path7494" />
    </g>
    <g
       style="clip-rule:evenodd;fill-rule:evenodd;stroke-linejoin:round;stroke-miterlimit:2"
       transform="matrix(0.03717206,0,0,0.03713723,9.9707857,140.83919)"
       id="g7500">
      <path
         inkscape:connector-curvature="0"
         d="m 940,-863 -1,-7 -3,-4 -5,-4 -5,-2 -12,-2 -12,-3 -6,-3 -6,-2 -3,-1 h -3 l -3,2 -4,2 -5,7 -4,7 -3,8 -1,8 -1,8 v 9 l 2,16 2,13 2,17 2,20 6,30 3,9 4,9 4,7 5,6 6,4 7,3 h 8 l 6,-1 4,-1 4,-3 3,-3 2,-4 1,-4 2,-9 v -11 l -2,-10 -2,-19 -2,-12 v -13 -12 l 1,-12 2,-11 4,-11 2,-11 1,-5 z"
         style="fill:#ffffff;fill-rule:nonzero;stroke:#000000;stroke-width:8.5px"
         id="path7498" />
    </g>
    <g
       style="clip-rule:evenodd;fill-rule:evenodd;stroke-linejoin:round;stroke-miterlimit:2"
       transform="matrix(0.03717206,0,0,0.03713723,9.9707857,140.83919)"
       id="g7504">
      <path
         inkscape:connector-curvature="0"
         d="m 1048,-872 7,1 h 16 l 8,4 3,4 2,6 3,14 2,14 v 15 l -1,14 v 43 l 2,15 4,18 1,9 v 9 l -1,8 -2,4 -2,4 -3,3 -3,3 -4,2 -5,3 -5,1 -5,1 -4,1 -4,-1 -4,-1 -3,-2 -5,-4 -4,-7 -3,-7 -3,-8 -2,-9 -4,-17 -6,-18 -7,-17 -6,-17 -3,-13 -3,-14 -2,-13 v -14 l 1,-10 2,-9 4,-6 5,-5 7,-3 7,-1 10,-1 z"
         style="fill:#ffffff;fill-rule:nonzero;stroke:#000000;stroke-width:8.5px"
         id="path7502" />
    </g>
    <g
       style="clip-rule:evenodd;fill-rule:evenodd;stroke-linejoin:round;stroke-miterlimit:2"
       transform="matrix(0.03717206,0,0,0.03713723,9.9707857,140.83919)"
       id="g7508">
      <path
         inkscape:connector-curvature="0"
         d="m 1663,-1028 4,2 4,3 4,10 1,11 1,10 2,22 -1,10 -1,5 -2,6 -3,7 -4,6 -8,13 h -3 l -3,-1 -3,-1 -2,-2 -4,-5 -3,-7 -2,-8 -1,-8 -1,-12 -3,-19 -2,-12 v -11 l 1,-5 1,-5 2,-4 3,-3 4,-2 5,-2 h 6 z"
         style="fill:#ffffff;fill-rule:nonzero;stroke:#000000;stroke-width:8.5px"
         id="path7506" />
    </g>
    <g
       style="clip-rule:evenodd;fill-rule:evenodd;stroke-linejoin:round;stroke-miterlimit:2"
       transform="matrix(0.03717206,0,0,0.03713723,9.9707857,140.83919)"
       id="g7512">
      <path
         inkscape:connector-curvature="0"
         d="m 1592,-944 6,-1 5,1 6,4 2,4 1,5 2,11 1,11 v 11 l -1,11 -2,11 -2,11 -3,10 -7,22 -3,5 -4,8 -6,7 -5,7 -6,5 -3,2 h -2 -2 l -2,-2 -2,-4 -1,-5 v -11 l 2,-12 1,-12 1,-12 -1,-7 -1,-6 -4,-13 -5,-13 -2,-7 -2,-7 v -8 l 2,-7 3,-6 5,-4 6,-4 7,-2 z"
         style="fill:#ffffff;fill-rule:nonzero;stroke:#000000;stroke-width:8.5px"
         id="path7510" />
    </g>
    <g
       style="clip-rule:evenodd;fill-rule:evenodd;stroke-linejoin:round;stroke-miterlimit:2"
       transform="matrix(0.03717206,0,0,0.03713723,9.9707857,140.83919)"
       id="g7516">
      <path
         inkscape:connector-curvature="0"
         d="m 1501,-894 3,2 2,3 4,7 4,16 2,18 1,15 v 16 l -1,17 -3,18 -3,16 -5,17 -3,8 -4,8 -5,6 -7,5 -3,1 -5,1 -4,1 h -5 l -5,-1 -5,-2 -4,-3 -3,-3 -5,-8 -5,-9 -3,-5 -1,-6 -1,-6 v -5 l 2,-25 v -25 l -1,-26 v -11 l 3,-10 2,-5 2,-5 4,-4 4,-4 4,-3 6,-3 6,-3 7,-3 7,-1 7,-1 h 6 z"
         style="fill:#ffffff;fill-rule:nonzero;stroke:#000000;stroke-width:8.5px"
         id="path7514" />
    </g>
    <g
       style="clip-rule:evenodd;fill-rule:evenodd;stroke-linejoin:round;stroke-miterlimit:2"
       transform="matrix(0.03717206,0,0,0.03713723,9.9707857,140.83919)"
       id="g7520">
      <path
         inkscape:connector-curvature="0"
         d="m 1295,-853 6,-4 7,-3 6,-3 6,-1 12,2 14,8 8,10 3,5 1,6 2,7 v 22 l -1,15 -3,14 -4,25 -3,18 -1,10 -2,10 -3,9 -4,9 -5,7 -7,7 -6,3 -5,2 -6,-1 -6,-1 -5,-3 -5,-3 -5,-4 -4,-5 -3,-4 -3,-5 -4,-10 -2,-12 -2,-12 -1,-12 v -12 l 1,-22 v -22 l 1,-9 1,-9 2,-8 4,-8 6,-8 z"
         style="fill:#ffffff;fill-rule:nonzero;stroke:#000000;stroke-width:8.5px"
         id="path7518" />
    </g>
    <g
       style="clip-rule:evenodd;fill-rule:evenodd;stroke-linejoin:round;stroke-miterlimit:2"
       transform="matrix(0.03717206,0,0,0.03713723,9.9707857,140.83919)"
       id="g7524">
      <path
         inkscape:connector-curvature="0"
         d="m 778,-973 7,6 2,3 1,3 v 2 l -1,3 -3,9 -5,11 -4,11 -7,22 -7,19 -4,10 -3,10 -1,8 v 10 l -1,4 -1,5 -2,3 -3,3 -4,3 h -4 l -3,-1 -2,-3 -2,-3 -1,-4 -1,-7 -1,-6 -2,-4 -1,-3 -2,-3 -6,-5 -6,-6 -3,-3 -1,-4 -2,-6 -1,-7 v -8 -7 l 1,-7 2,-7 2,-6 6,-11 9,-12 6,-8 5,-9 6,-8 5,-5 3,-2 3,-2 h 7 l 4,1 10,6 z"
         style="fill:#ffffff;fill-rule:nonzero;stroke:#000000;stroke-width:8.5px"
         id="path7522" />
    </g>
    <g
       style="clip-rule:evenodd;fill-rule:evenodd;stroke-linejoin:round;stroke-miterlimit:2"
       transform="matrix(0.03717206,0,0,0.03713723,9.9707857,140.83919)"
       id="g7528">
      <path
         inkscape:connector-curvature="0"
         d="m 821,-903 v -3 l 1,-2 1,-2 2,-1 5,-1 6,1 6,2 5,2 9,4 8,6 2,3 2,2 1,4 v 3 l -1,10 -3,22 -4,21 -1,10 v 22 l 1,11 3,15 3,20 1,10 v 9 l -1,7 -2,3 -2,1 -3,1 h -3 l -3,-1 -3,-1 -7,-5 -6,-6 -6,-8 -5,-7 -8,-12 -6,-8 -3,-9 -2,-9 v -8 -9 l 1,-9 1,-20 1,-18 v -10 l 1,-10 2,-9 3,-10 4,-8 6,-7 z"
         style="fill:#ffffff;fill-rule:nonzero;stroke:#000000;stroke-width:8.5px"
         id="path7526" />
    </g>
    <g
       style="clip-rule:evenodd;fill-rule:evenodd;stroke-linejoin:round;stroke-miterlimit:2"
       transform="matrix(0.03717206,0,0,0.03713723,9.9707857,140.83919)"
       id="g7532">
      <path
         inkscape:connector-curvature="0"
         d="m 958,-689 -4,-2 -4,-2 -6,-6 -5,-7 -3,-9 -2,-8 -1,-9 v -17 l 2,-35 v -18 l -1,-17 v -8 -7 l 1,-6 1,-6 3,-6 3,-5 5,-5 6,-5 5,-3 7,-2 h 13 l 7,1 6,3 5,3 4,5 2,5 1,7 1,14 1,11 v 12 l -1,11 1,11 4,12 7,11 6,10 3,6 1,5 v 12 l -2,6 -3,5 -3,6 -4,5 -4,5 -5,5 -6,4 -6,4 -6,2 -6,3 -6,1 h -6 -6 z"
         style="fill:#ffffff;fill-rule:nonzero;stroke:#000000;stroke-width:8.5px"
         id="path7530" />
    </g>
    <g
       style="clip-rule:evenodd;fill-rule:evenodd;stroke-linejoin:round;stroke-miterlimit:2"
       transform="matrix(0.03717206,0,0,0.03713723,9.9707857,140.83919)"
       id="g7536">
      <path
         inkscape:connector-curvature="0"
         d="m 1605,-941 -1,-7 2,-7 2,-8 4,-7 5,-6 3,-2 3,-1 h 5 l 3,2 2,3 2,4 2,5 2,11 2,21 2,17 1,16 -2,14 -2,9 -3,9 -4,9 -2,3 -3,2 -2,2 -3,1 -4,-1 -3,-2 -3,-2 -1,-3 -1,-4 1,-3 2,-7 1,-7 2,-8 1,-9 v -10 l -1,-9 -2,-5 -4,-8 -4,-7 v -3 -2 z"
         style="fill:#ffffff;fill-rule:nonzero;stroke:#000000;stroke-width:8.5px"
         id="path7534" />
    </g>
    <g
       style="clip-rule:evenodd;fill-rule:evenodd;stroke-linejoin:round;stroke-miterlimit:2"
       transform="matrix(0.03717206,0,0,0.03713723,9.9707857,140.83919)"
       id="g7540">
      <path
         inkscape:connector-curvature="0"
         d="m 1518,-811 1,-22 v -10 l -1,-11 -3,-19 -1,-8 1,-8 1,-3 1,-3 2,-3 3,-2 4,-2 4,-1 6,-1 h 6 l 8,1 4,2 3,5 2,7 3,7 2,9 3,20 v 12 l 1,11 -1,12 -1,11 -2,11 -4,11 -4,9 -5,9 -6,7 -8,6 -8,4 -5,1 h -6 -5 l -2,-2 -2,-3 1,-4 2,-8 3,-7 2,-9 1,-9 v -18 z"
         style="fill:#ffffff;fill-rule:nonzero;stroke:#000000;stroke-width:8.5px"
         id="path7538" />
    </g>
    <g
       style="clip-rule:evenodd;fill-rule:evenodd;stroke-linejoin:round;stroke-miterlimit:2"
       transform="matrix(0.03717206,0,0,0.03713723,9.9707857,140.83919)"
       id="g7544">
      <path
         inkscape:connector-curvature="0"
         d="m 1355,-773 3,-16 1,-8 v -9 -12 -14 l 1,-7 2,-7 3,-6 3,-5 3,-2 4,-2 8,-3 16,-3 15,-4 h 12 l 3,1 1,2 2,3 2,7 2,15 2,9 v 10 l -2,18 -3,19 -1,9 v 10 l 2,15 3,14 2,8 v 7 l -2,3 -5,6 -11,10 -12,11 -6,4 -7,4 -7,3 -7,1 -7,-1 -7,-2 -6,-3 -5,-4 -5,-5 -3,-6 -3,-7 v -6 l 1,-8 1,-7 1,-8 1,-8 2,-14 z"
         style="fill:#ffffff;fill-rule:nonzero;stroke:#000000;stroke-width:8.5px"
         id="path7542" />
    </g>
    <g
       style="clip-rule:evenodd;fill-rule:evenodd;stroke-linejoin:round;stroke-miterlimit:2"
       transform="matrix(0.03717206,0,0,0.03713723,9.9707857,140.83919)"
       id="g7548">
      <path
         inkscape:connector-curvature="0"
         d="m 1088,-821 1,-10 3,-9 3,-9 5,-7 3,-3 4,-3 4,-2 5,-2 5,-2 6,-1 h 13 l 8,1 7,1 8,3 7,3 5,4 3,4 3,5 2,7 2,12 3,36 -1,24 v 63 l -1,11 -2,9 -2,5 -2,3 -3,4 -3,3 -4,2 -3,2 -8,1 h -8 l -9,-2 -8,-3 -7,-4 -7,-5 -5,-5 -5,-7 -4,-7 -4,-8 -2,-8 -2,-9 -2,-9 -1,-16 -2,-18 -2,-18 -3,-18 v -9 z"
         style="fill:#ffffff;fill-rule:nonzero;stroke:#000000;stroke-width:8.5px"
         id="path7546" />
    </g>
    <g
       style="clip-rule:evenodd;fill-rule:evenodd;stroke-linejoin:round;stroke-miterlimit:2"
       transform="matrix(0.03717206,0,0,0.03713723,9.9707857,140.83919)"
       id="g7552">
      <path
         inkscape:connector-curvature="0"
         d="m 1646,-1068 -1,-10 -1,-10 -1,-5 -2,-5 -3,-3 -4,-3 -4,-1 h -4 l -10,2 -8,4 -7,5 -4,4 -2,4 -1,3 v 7 l 1,4 4,8 5,8 3,9 7,17 6,14 3,8 2,2 2,3 3,2 3,1 h 2 l 3,-1 4,-3 3,-5 3,-6 2,-7 2,-7 v -5 l -1,-9 -1,-8 z"
         style="fill:#ffffff;fill-rule:nonzero;stroke:#000000;stroke-width:8.5px"
         id="path7550" />
    </g>
    <g
       style="clip-rule:evenodd;fill-rule:evenodd;stroke-linejoin:round;stroke-miterlimit:2"
       transform="matrix(0.03717206,0,0,0.03713723,9.9707857,140.83919)"
       id="g7556">
      <path
         inkscape:connector-curvature="0"
         d="m 1247,-689 6,-16 5,-16 8,-33 2,-17 1,-18 v -17 l 1,-18 1,-9 v -8 l -2,-6 -2,-5 -4,-3 -6,-3 -8,-1 h -10 l -16,-1 -10,-1 -9,1 -9,1 -4,1 -3,2 -3,2 -2,3 -1,4 v 4 l 2,18 6,38 v 18 l -1,13 v 13 l 1,13 1,14 -1,7 -1,9 -1,8 v 4 l 1,4 2,5 6,6 8,4 h 5 l 4,1 5,-1 9,-2 8,-5 7,-6 2,-3 z"
         style="fill:#ffffff;fill-rule:nonzero;stroke:#000000;stroke-width:8.5px"
         id="path7554" />
    </g>
    <g
       style="clip-rule:evenodd;fill-rule:evenodd;stroke-linejoin:round;stroke-miterlimit:2"
       transform="matrix(0.03717206,0,0,0.03713723,9.9707857,140.83919)"
       id="g7560">
      <path
         inkscape:connector-curvature="0"
         d="m 738,-1083 -2,12 -4,17 -3,8 -4,7 -2,2 -2,2 h -3 -2 l -3,-1 -2,-1 -2,-3 -2,-2 -1,-7 -1,-7 1,-8 v -8 l 2,-11 1,-9 v -10 -10 l 1,-4 2,-5 3,-3 4,-3 4,-2 h 9 l 8,4 3,4 1,5 1,4 -1,5 -1,5 -3,10 z"
         style="fill:#ffffff;fill-rule:nonzero;stroke:#000000;stroke-width:8.5px"
         id="path7558" />
    </g>
    <g
       style="clip-rule:evenodd;fill-rule:evenodd;stroke-linejoin:round;stroke-miterlimit:2"
       transform="matrix(0.03717206,0,0,0.03713723,9.9707857,140.83919)"
       id="g7564">
      <path
         inkscape:connector-curvature="0"
         d="m 801,-1085 -6,-4 -5,-3 -5,-2 h -4 l -3,1 -3,1 -3,3 -2,3 -3,8 -3,9 -2,20 -2,11 -3,12 -2,11 -1,6 1,5 1,6 3,7 4,6 3,5 8,7 3,3 3,1 h 4 l 3,-2 2,-3 3,-5 3,-9 2,-10 3,-21 2,-21 3,-20 2,-8 1,-6 -1,-3 -1,-2 -2,-3 z"
         style="fill:#ffffff;fill-rule:nonzero;stroke:#000000;stroke-width:8.5px"
         id="path7562" />
    </g>
    <g
       style="clip-rule:evenodd;fill-rule:evenodd;stroke-linejoin:round;stroke-miterlimit:2"
       transform="matrix(0.03717206,0,0,0.03713723,9.9707857,140.83919)"
       id="g7568">
      <path
         inkscape:connector-curvature="0"
         d="m 857,-899 -7,-6 -8,-4 -3,-3 -3,-3 -2,-4 -2,-4 -1,-8 v -7 -16 l 1,-26 1,-13 2,-14 3,-13 4,-13 6,-12 4,-5 4,-5 5,-4 5,-4 6,-3 7,-3 6,-1 7,1 2,1 3,1 5,5 3,7 4,14 1,7 v 8 l -1,7 -3,16 -7,30 -3,15 -2,14 v 18 l 1,18 1,7 -1,6 -1,3 -1,2 -3,2 -3,1 -4,1 h -5 l -4,-2 -3,-1 -7,-5 z"
         style="fill:#ffffff;fill-rule:nonzero;stroke:#000000;stroke-width:8.5px"
         id="path7566" />
    </g>
    <g
       style="clip-rule:evenodd;fill-rule:evenodd;stroke-linejoin:round;stroke-miterlimit:2"
       transform="matrix(0.03717206,0,0,0.03713723,9.9707857,140.83919)"
       id="g7572">
      <path
         inkscape:connector-curvature="0"
         d="m 971,-956 3,-21 5,-20 3,-20 2,-10 v -10 -7 l 2,-8 3,-7 5,-6 5,-5 3,-2 3,-1 h 8 l 8,2 6,4 5,6 4,6 4,8 4,16 3,14 5,32 2,16 v 16 l -2,37 v 18 l 2,19 1,6 -1,4 -1,1 h -2 l -7,1 -8,1 h -9 l -8,-1 -9,1 h -13 l -13,-1 -12,-3 -12,-4 -2,-2 -1,-2 -1,-4 v -5 l 2,-13 2,-13 7,-27 z"
         style="fill:#ffffff;fill-rule:nonzero;stroke:#000000;stroke-width:8.5px"
         id="path7570" />
    </g>
    <g
       style="clip-rule:evenodd;fill-rule:evenodd;stroke-linejoin:round;stroke-miterlimit:2"
       transform="matrix(0.03717206,0,0,0.03713723,9.9707857,140.83919)"
       id="g7576">
      <path
         inkscape:connector-curvature="0"
         d="m 1591,-987 6,14 2,6 1,6 v 6 l -1,6 -3,6 -5,6 -9,9 -5,6 -6,4 -7,4 -6,1 h -3 l -3,-1 -2,-1 -3,-3 -3,-6 -2,-6 v -7 -7 l 1,-14 1,-7 -1,-6 -3,-24 -3,-25 -2,-11 -3,-11 v -6 -6 l 1,-5 3,-5 3,-3 3,-2 3,-2 h 11 l 7,3 4,3 4,4 3,4 2,4 4,11 2,11 3,23 2,11 z"
         style="fill:#ffffff;fill-rule:nonzero;stroke:#000000;stroke-width:8.5px"
         id="path7574" />
    </g>
    <g
       style="clip-rule:evenodd;fill-rule:evenodd;stroke-linejoin:round;stroke-miterlimit:2"
       transform="matrix(0.03717206,0,0,0.03713723,9.9707857,140.83919)"
       id="g7580">
      <path
         inkscape:connector-curvature="0"
         d="m 1439,-1079 h 5 l 4,1 4,3 4,2 6,8 5,9 8,20 4,18 6,30 3,30 4,12 4,14 3,14 1,7 -1,5 -2,5 -1,1 -2,1 -10,2 -7,1 -6,3 -7,3 -6,4 -7,5 -6,5 -3,2 h -4 -3 l -5,-3 -3,-2 -2,-3 -4,-8 -2,-9 -1,-10 -1,-20 v -9 l -1,-8 -4,-21 -2,-11 -2,-11 -1,-25 v -14 l 2,-15 1,-8 2,-6 3,-6 3,-6 4,-4 5,-3 5,-3 z"
         style="fill:#ffffff;fill-rule:nonzero;stroke:#000000;stroke-width:8.5px"
         id="path7578" />
    </g>
    <g
       style="clip-rule:evenodd;fill-rule:evenodd;stroke-linejoin:round;stroke-miterlimit:2"
       transform="matrix(0.03717206,0,0,0.03713723,9.9707857,140.83919)"
       id="g7584">
      <path
         inkscape:connector-curvature="0"
         d="m 1229,-862 -8,1 h -11 l -10,-2 -4,-1 -3,-3 -1,-2 -1,-4 v -7 l 1,-8 v -7 -23 -23 -18 l 1,-17 2,-18 3,-17 4,-16 3,-8 4,-8 4,-8 5,-7 6,-7 7,-5 6,-3 8,-2 8,-1 h 8 l 9,1 6,4 2,2 2,3 5,8 4,11 3,11 5,22 8,46 2,11 6,22 1,11 1,23 v 27 l -1,3 -2,3 -2,2 -5,4 -6,1 -6,1 h -7 l -14,1 -11,-1 -11,-1 -10,-1 z"
         style="fill:#ffffff;fill-rule:nonzero;stroke:#000000;stroke-width:8.5px"
         id="path7582" />
    </g>
    <g
       style="clip-rule:evenodd;fill-rule:evenodd;stroke-linejoin:round;stroke-miterlimit:2"
       transform="matrix(0.03717206,0,0,0.03713723,9.9707857,140.83919)"
       id="g7588">
      <path
         inkscape:connector-curvature="0"
         d="m 788,-965 -1,4 1,4 2,4 3,4 6,7 15,15 2,1 h 2 l 2,-2 3,-4 1,-3 1,-3 1,-7 -1,-15 2,-16 3,-16 2,-8 3,-8 6,-16 6,-16 2,-8 1,-8 v -3 -4 l -1,-3 -2,-3 -5,-4 -7,-2 h -7 l -7,1 -6,3 -3,2 -3,3 -2,3 -1,3 -1,7 v 14 l -2,16 -2,16 -2,6 -2,7 -4,13 -5,14 -1,6 -1,7 z"
         style="fill:#ffffff;fill-rule:nonzero;stroke:#000000;stroke-width:8.5px"
         id="path7586" />
    </g>
    <g
       style="clip-rule:evenodd;fill-rule:evenodd;stroke-linejoin:round;stroke-miterlimit:2"
       transform="matrix(0.03717206,0,0,0.03713723,9.9707857,140.83919)"
       id="g7592">
      <path
         inkscape:connector-curvature="0"
         d="m 898,-893 4,4 7,2 14,3 15,2 8,1 7,-1 5,-35 6,-36 3,-18 2,-18 1,-18 v -18 l -1,-7 -1,-8 -2,-7 -3,-6 -3,-6 -4,-5 -6,-5 -7,-4 -4,-2 -4,-1 -4,-1 h -3 l -3,1 -3,2 -5,4 -3,5 -3,7 -1,8 -1,7 1,10 -1,9 -3,17 -2,18 -1,9 -1,9 -1,19 -2,20 -2,19 -1,10 v 9 z"
         style="fill:#ffffff;fill-rule:nonzero;stroke:#000000;stroke-width:8.5px"
         id="path7590" />
    </g>
    <g
       style="clip-rule:evenodd;fill-rule:evenodd;stroke-linejoin:round;stroke-miterlimit:2"
       transform="matrix(0.03717206,0,0,0.03713723,9.9707857,140.83919)"
       id="g7596">
      <path
         inkscape:connector-curvature="0"
         d="m 1060,-876 -3,-8 -1,-8 -1,-8 v -8 l 2,-16 3,-17 8,-33 4,-16 3,-15 v -7 -8 l 1,-19 1,-9 1,-9 3,-7 2,-2 3,-2 6,-4 8,-3 8,-1 8,-1 h 9 l 8,1 7,2 7,3 7,5 6,6 8,14 5,15 5,16 5,15 3,15 2,15 v 17 l -1,36 -2,35 -2,8 -2,7 -4,5 -6,3 -6,3 -7,1 -17,1 -19,-1 -15,-2 -15,-2 -15,-3 -11,-4 -5,-2 -3,-3 -1,-3 v -3 z"
         style="fill:#ffffff;fill-rule:nonzero;stroke:#000000;stroke-width:8.5px"
         id="path7594" />
    </g>
    <g
       style="clip-rule:evenodd;fill-rule:evenodd;stroke-linejoin:round;stroke-miterlimit:2"
       transform="matrix(0.03717206,0,0,0.03713723,9.9707857,140.83919)"
       id="g7600">
      <path
         inkscape:connector-curvature="0"
         d="m 1400,-871 5,-1 4,-1 3,-1 2,-2 2,-3 1,-2 2,-6 -1,-7 -1,-8 -3,-15 -3,-17 -4,-17 -3,-17 -3,-16 -3,-18 -2,-7 -2,-7 -4,-7 -3,-7 -11,-14 -4,-7 -5,-8 -3,-3 -3,-3 -3,-2 h -4 -3 l -3,1 -3,2 -2,3 -3,7 -3,6 -5,10 -2,10 -3,10 -1,10 -4,40 -2,24 -1,24 1,12 3,12 4,24 1,4 2,3 3,2 4,1 5,1 h 5 l 12,-1 12,-3 11,-3 11,-2 z"
         style="fill:#ffffff;fill-rule:nonzero;stroke:#000000;stroke-width:8.5px"
         id="path7598" />
    </g>
    <g
       style="clip-rule:evenodd;fill-rule:evenodd;stroke-linejoin:round;stroke-miterlimit:2"
       transform="matrix(0.03717206,0,0,0.03713723,9.9707857,140.83919)"
       id="g7604">
      <path
         inkscape:connector-curvature="0"
         d="m 1511,-1068 7,6 5,7 3,8 2,7 2,8 1,8 2,18 2,19 1,20 v 57 l -1,3 -2,3 -3,2 -6,2 -8,3 -14,2 -4,-19 -4,-18 -4,-19 -3,-19 -5,-37 -1,-8 v -12 -13 l 2,-14 2,-6 2,-5 3,-4 3,-4 3,-1 h 4 l 5,2 z"
         style="fill:#ffffff;fill-rule:nonzero;stroke:#000000;stroke-width:8.5px"
         id="path7602" />
    </g>
    <g
       style="clip-rule:evenodd;fill-rule:evenodd;stroke-linejoin:round;stroke-miterlimit:2"
       transform="matrix(0.03717206,0,0,0.03713723,9.9707857,140.83919)"
       id="g7608">
      <path
         inkscape:connector-curvature="0"
         d="m 1604,-973 -3,-1 -3,-1 -2,-2 -2,-2 -2,-6 -2,-7 -3,-16 -2,-15 -4,-13 -3,-10 -3,-10 -1,-9 v -8 l 2,-3 1,-3 3,-1 3,-1 3,1 3,2 10,12 3,4 5,11 3,10 7,21 5,10 5,11 2,6 v 4 l -2,3 -6,5 -5,4 -5,2 -4,1 z"
         style="fill:#ffffff;fill-rule:nonzero;stroke:#000000;stroke-width:8.5px"
         id="path7606" />
    </g>
    <g
       style="clip-rule:evenodd;fill-rule:evenodd;stroke-linejoin:round;stroke-miterlimit:2"
       transform="matrix(0.03717206,0,0,0.03713723,9.9707857,140.83919)"
       id="g7612">
      <path
         inkscape:connector-curvature="0"
         d="m 762,-1095 3,3 2,6 1,4 -1,8 -1,8 -2,8 -2,9 -6,17 -2,8 -1,9 -3,9 -1,4 -2,3 -3,-5 -3,-4 -7,-9 -7,-8 -3,-5 -2,-4 v -3 -3 l 2,-6 4,-5 3,-6 4,-11 3,-7 4,-8 4,-7 5,-5 3,-1 2,-1 z"
         style="fill:#ffffff;fill-rule:nonzero;stroke:#000000;stroke-width:8.5px"
         id="path7610" />
    </g>
    <g
       style="clip-rule:evenodd;fill-rule:evenodd;stroke-linejoin:round;stroke-miterlimit:2"
       transform="matrix(0.03717206,0,0,0.03713723,9.9707857,140.83919)"
       id="g7616">
      <path
         inkscape:connector-curvature="0"
         d="m 1573,-1561 -1,1 h -1 -1 l -5,-1 h -4 l -3,1 -3,2 -2,2 -1,3 1,2 v 2 l 3,2 7,4 18,8 8,1 h 6 l 4,-2 2,-2 v -2 -3 l -2,-4 -3,-3 -4,-4 -5,-3 -4,-2 -5,-2 z"
         style="fill-rule:nonzero;stroke:#000000;stroke-width:8.5px"
         id="path7614" />
    </g>
    <g
       style="clip-rule:evenodd;fill-rule:evenodd;stroke-linejoin:round;stroke-miterlimit:2"
       transform="matrix(0.03717206,0,0,0.03713723,9.9707857,140.83919)"
       id="g7620">
      <path
         inkscape:connector-curvature="0"
         d="m 803,-1567 -5,1 -5,1 -4,3 -5,3 -4,5 -3,4 -2,5 v 8 l 2,4 1,1 h 3 l 7,-1 9,-4 8,-5 7,-6 2,-4 1,-4 -1,-4 -2,-3 -2,-2 -4,-2 z"
         style="fill-rule:nonzero"
         id="path7618" />
    </g>
    <g
       style="clip-rule:evenodd;fill-rule:evenodd;stroke-linejoin:round;stroke-miterlimit:2"
       transform="matrix(0.03717206,0,0,0.03713723,9.9707857,140.83919)"
       id="g7624">
      <path
         inkscape:connector-curvature="0"
         d="m 1861,-1305 -6,35 -6,35 -12,69 -6,35 -4,35 -3,35 -1,36 v 24 l 2,25 3,24 5,25 v 1 h 2 l 1,-1 v -1 l -4,-25 -3,-24 -2,-24 v -24 l 1,-35 3,-35 4,-35 5,-35 13,-70 6,-35 6,-34 -1,-2 -1,-1 -1,1 z"
         style="fill:#1a171b;fill-rule:nonzero"
         id="path7622" />
    </g>
    <g
       style="clip-rule:evenodd;fill-rule:evenodd;stroke-linejoin:round;stroke-miterlimit:2"
       transform="matrix(0.03717206,0,0,0.03713723,9.9707857,140.83919)"
       id="g7628">
      <path
         inkscape:connector-curvature="0"
         d="m 1871,-1362 -2,5 -2,5 -1,10 -1,11 -1,10 -4,22 -1,12 -3,10 v 2 l 1,1 2,-1 1,-1 2,-11 2,-11 4,-23 1,-10 1,-10 1,-10 2,-5 2,-5 v -1 l -1,-1 h -2 z"
         style="fill:#1a171b;fill-rule:nonzero"
         id="path7626" />
    </g>
    <g
       style="clip-rule:evenodd;fill-rule:evenodd;stroke-linejoin:round;stroke-miterlimit:2"
       transform="matrix(0.03717206,0,0,0.03713723,9.9707857,140.83919)"
       id="g7632">
      <path
         inkscape:connector-curvature="0"
         d="m 484,-1366 v 10 l 3,5 4,9 6,8 5,8 3,6 8,19 6,20 4,28 3,28 3,29 2,14 3,15 5,27 4,28 6,55 3,22 4,23 1,9 1,11 -1,38 v 17 l 2,7 2,8 1,1 h 2 l 1,-1 v -1 l -2,-7 -2,-8 v -16 l 1,-38 -1,-11 -1,-10 -4,-22 -3,-23 -6,-55 -4,-27 -5,-28 -3,-14 -2,-14 -3,-29 -3,-28 -2,-15 -2,-14 -3,-10 -3,-10 -8,-20 -5,-9 -11,-16 -4,-8 -1,-4 v -3 -2 -2 l -1,-1 h -2 z"
         style="fill:#1a171b;fill-rule:nonzero"
         id="path7630" />
    </g>
    <g
       style="clip-rule:evenodd;fill-rule:evenodd;stroke-linejoin:round;stroke-miterlimit:2"
       transform="matrix(0.03717206,0,0,0.03713723,9.9707857,140.83919)"
       id="g7636">
      <path
         inkscape:connector-curvature="0"
         d="m 1280,-528 6,20 12,46 8,22 5,10 6,10 6,8 7,8 8,6 9,4 10,3 11,1 h 7 l 7,-1 8,-2 8,-2 1,-1 v -2 l -1,-1 h -1 l -15,4 -7,1 h -7 l -10,-1 -10,-2 -8,-5 -7,-5 -5,-5 -5,-6 -4,-7 -4,-7 -7,-15 -6,-16 -5,-17 -4,-18 -9,-31 -1,-2 h -1 l -2,1 z"
         style="fill:#1a171b;fill-rule:nonzero"
         id="path7634" />
    </g>
    <g
       style="clip-rule:evenodd;fill-rule:evenodd;stroke-linejoin:round;stroke-miterlimit:2"
       transform="matrix(0.03717206,0,0,0.03713723,9.9707857,140.83919)"
       id="g7640">
      <path
         inkscape:connector-curvature="0"
         d="m 1160,-547 v 6 l -1,13 -2,15 -3,15 -5,15 -6,15 -7,14 -7,11 -8,10 -5,3 -6,4 -7,3 -8,4 -8,2 -9,2 -8,1 -8,1 -7,-1 -6,-1 h -1 l -1,1 v 1 l 1,1 6,2 8,1 9,-1 8,-1 9,-2 8,-3 8,-3 8,-3 6,-4 5,-4 9,-10 8,-12 7,-14 6,-15 4,-16 4,-15 2,-15 1,-14 v -6 l -1,-2 h -1 l -2,1 z"
         style="fill:#1a171b;fill-rule:nonzero"
         id="path7638" />
    </g>
    <g
       style="clip-rule:evenodd;fill-rule:evenodd;stroke-linejoin:round;stroke-miterlimit:2"
       transform="matrix(0.03717206,0,0,0.03713723,9.9707857,140.83919)"
       id="g7644">
      <path
         inkscape:connector-curvature="0"
         d="m 1613,-612 h -6 l -6,2 -6,3 -6,4 -6,4 -5,5 -5,5 -4,5 -3,8 -2,6 v 1 l 2,6 1,2 v 1 h 4 l 3,-2 7,-4 7,-5 7,-4 8,-3 9,-2 9,-2 4,-2 3,-2 3,-3 v -4 -5 l 2,-1 -2,1 -3,-7 -4,-4 -5,-3 z"
         style="fill-rule:nonzero;stroke:#000000;stroke-width:8.5px"
         id="path7642" />
    </g>
    <g
       style="clip-rule:evenodd;fill-rule:evenodd;stroke-linejoin:round;stroke-miterlimit:2"
       transform="matrix(0.03717206,0,0,0.03713723,9.9707857,140.83919)"
       id="g7648">
      <path
         inkscape:connector-curvature="0"
         d="m 808,-573 -10,1 -8,2 -5,2 -3,3 -1,1 -1,2 1,2 2,2 h 11 l 3,2 5,5 1,2 v 2 l 2,4 5,9 1,3 3,1 7,1 h 2 l 7,-1 6,-2 4,-2 2,-4 1,-3 1,-5 -1,-4 -1,-6 -3,-4 -3,-4 -5,-3 -5,-3 -6,-1 -6,-1 z"
         style="fill-rule:nonzero;stroke:#000000;stroke-width:8.5px"
         id="path7646" />
    </g>
    <g
       style="clip-rule:evenodd;fill-rule:evenodd;stroke-linejoin:round;stroke-miterlimit:2"
       transform="matrix(0.03717206,0,0,0.03713723,9.9707857,140.83919)"
       id="g7652">
      <path
         inkscape:connector-curvature="0"
         d="m 768,-2278 h -9 l -6,2 h -1 l -1,1 -5,3 -8,6 12,2 9,1 8,1 7,-1 3,-1 3,-1 5,-5 1,-3 -1,-2 -4,-2 -6,-1 z"
         style="fill-rule:nonzero;stroke:#000000;stroke-width:8.5px"
         id="path7650" />
    </g>
    <g
       style="clip-rule:evenodd;fill-rule:evenodd;stroke-linejoin:round;stroke-miterlimit:2"
       transform="matrix(0.03717206,0,0,0.03713723,9.9707857,140.83919)"
       id="g7656">
      <path
         inkscape:connector-curvature="0"
         d="m 1586,-2286 h -1 l -2,1 -2,2 -1,1 3,6 5,2 7,1 h 1 v -1 l -1,-5 -2,-4 -4,-3 z"
         style="fill-rule:nonzero;stroke:#000000;stroke-width:8.5px"
         id="path7654" />
    </g>
    <g
       style="clip-rule:evenodd;fill-rule:evenodd;stroke-linejoin:round;stroke-miterlimit:2"
       transform="matrix(0.03717206,0,0,0.03713723,9.9707857,140.83919)"
       id="g7660">
      <path
         inkscape:connector-curvature="0"
         d="m 1661,-2275 -13,1 -6,1 -5,1 -3,2 v 1 l 3,2 7,2 9,2 h 18 l 6,-2 5,-4 2,-2 h -1 l -1,-1 -4,-2 -8,-1 z"
         style="fill-rule:nonzero;stroke:#000000;stroke-width:8.5px"
         id="path7658" />
    </g>
    <g
       style="clip-rule:evenodd;fill-rule:evenodd;stroke-linejoin:round;stroke-miterlimit:2"
       transform="matrix(0.03717206,0,0,0.03713723,9.9707857,140.83919)"
       id="g7664">
      <path
         inkscape:connector-curvature="0"
         d="m 813,-1802 -11,7 -5,3 -5,2 -11,3 -11,1 -12,1 h -22 l -11,1 -9,2 -7,3 -6,3 -12,8 -12,8 -6,5 -6,3 -13,6 -12,5 -13,3 -12,1 -10,-1 -5,-1 -5,-2 1,3 1,7 3,7 2,6 3,6 5,6 7,5 6,2 6,1 h 6 l 6,-2 13,-5 13,-6 14,-6 9,-3 9,-1 h 5 l 10,4 3,3 6,8 4,7 5,7 3,3 5,2 2,1 -6,-16 -3,-9 -3,-9 -1,-8 1,-5 2,-5 3,-3 4,-4 9,-6 12,-7 11,-7 10,-9 19,-18 z m 33,-25 -10,6 -10,8 z m 172,-171 -1,5 5,-2 z m -49,-17 -3,1 -5,2 -3,3 -3,3 -1,2 v 4 l 1,2 5,6 6,5 7,6 8,7 6,6 4,-7 -1,-2 -3,-6 -3,-8 -4,-12 -2,-6 -4,-4 -2,-1 z m -165,-64 h -4 l -3,2 -1,3 -1,7 v 4 l 2,4 6,10 9,9 8,9 28,40 14,19 8,9 9,9 9,10 8,9 5,11 5,12 4,13 1,11 v 6 l -1,5 -2,5 -3,5 -2,4 h 1 l 11,-5 5,-2 6,-3 6,-5 5,-7 5,-8 5,-9 7,-13 -2,-2 -2,-1 -3,-5 -2,-6 -1,-6 -2,-23 -1,-3 -2,-5 -3,-4 -3,-2 -4,-1 -10,-2 -11,-1 -9,-2 -8,-3 -6,-4 -6,-5 -5,-5 -5,-6 -8,-12 -7,-12 -7,-13 -7,-12 -8,-11 -4,-5 -5,-4 -4,-4 -6,-3 -5,-2 z"
         style="fill-rule:nonzero;stroke:#000000;stroke-width:8.5px"
         id="path7662" />
    </g>
    <g
       style="clip-rule:evenodd;fill-rule:evenodd;stroke-linejoin:round;stroke-miterlimit:2"
       transform="matrix(0.03717206,0,0,0.03713723,9.9707857,140.83919)"
       id="g7668">
      <path
         inkscape:connector-curvature="0"
         d="m 1613,-1851 h -6 l -10,2 -10,2 -11,2 -11,1 -7,-1 26,21 28,18 22,13 21,15 6,5 5,4 3,5 2,5 1,7 1,13 1,12 2,11 1,12 2,11 v 8 l 7,5 2,1 2,-1 4,-5 3,-5 v -6 -8 l -2,-8 -2,-8 -1,-9 v -3 l 1,-7 2,-6 3,-5 3,-3 3,-1 3,-1 5,1 5,2 17,17 16,20 3,2 6,3 6,1 4,-1 3,-1 8,-5 7,-6 8,-8 10,-10 4,-4 2,-3 1,-5 -1,-5 -4,-7 -6,-6 -7,-6 -7,-5 -6,-5 -7,2 -7,1 -10,-1 -12,-4 1,-3 -1,3 -13,-5 -12,-5 -11,-7 -10,-7 -21,-13 -11,-7 -11,-6 -12,-5 -10,-5 -10,-2 z m -140,-138 -6,1 -7,3 -1,2 -3,3 -5,12 -7,14 -7,14 -5,7 7,8 2,2 2,-4 5,-5 8,-6 16,-11 6,-5 4,-6 2,-6 1,-6 v -1 l -1,-7 -3,-6 -4,-2 z m 157,-109 h -3 l -5,3 -2,2 -3,4 -6,10 -5,12 -5,12 -6,15 -11,20 -12,21 -6,10 -8,9 -9,8 -10,7 -7,4 -7,2 -6,3 -5,3 -3,4 -3,4 -2,4 -1,5 -1,11 -1,12 -1,6 -2,6 -4,7 -6,5 -1,1 15,6 12,6 5,3 6,4 1,1 -2,-6 -1,-5 -1,-12 1,-13 3,-12 5,-11 6,-11 7,-9 8,-9 17,-17 17,-16 14,-12 18,-15 9,-8 9,-8 8,-9 7,-9 3,-6 3,-6 1,-6 1,-5 v -4 l -1,-4 -4,-1 -3,-2 -6,-4 -6,-4 -5,-4 -3,-2 z"
         style="fill-rule:nonzero;stroke:#000000;stroke-width:8.5px"
         id="path7666" />
    </g>
    <g
       style="clip-rule:evenodd;fill-rule:evenodd;stroke-linejoin:round;stroke-miterlimit:2"
       transform="matrix(0.03717206,0,0,0.03713723,9.9707857,140.83919)"
       id="g7672">
      <path
         inkscape:connector-curvature="0"
         d="m 516,-2116 2,1 20,-17 11,-8 11,-8 21,-12 21,-11 23,-10 22,-10 16,-6 15,-5 15,-4 16,-3 32,-6 32,-4 40,-5 21,-2 21,-1 h 12 l 13,1 12,2 11,3 22,8 12,4 24,12 10,7 10,8 7,7 6,8 5,9 8,22 2,11 3,11 2,21 4,39 4,38 4,39 1,19 v 44 l -2,12 -2,12 -5,24 -7,24 -9,23 -7,21 -7,20 -4,9 -4,10 -5,9 -6,8 -7,9 -7,8 -7,7 -8,7 -8,6 -8,5 -18,9 -18,8 -20,7 -40,12 -15,4 -15,3 -16,3 -16,2 -32,2 h -33 -31 l -30,-1 -21,-1 -22,-2 -23,-3 -23,-5 -11,-4 -10,-4 -10,-4 -9,-6 -9,-6 -8,-7 -7,-8 -5,-9 -5,-10 -5,-11 -3,-11 -2,-12 -2,-12 -1,-12 -1,-25 1,-24 1,-24 1,-23 v -23 -1 l 1,-12 1,-12 5,-24 5,-24 2,-12 1,-12 1,-8 -1,-22 -1,-22 v -13 l 2,-9 3,-8 3,-8 5,-6 5,-6 6,-6 14,-13 -2,-1 -1,-2 -14,13 -6,6 -6,6 -4,7 -4,8 -3,9 -2,10 v 13 l 2,44 -1,7 -1,13 -2,12 -5,23 -4,24 -2,12 -1,13 v 23 l -1,24 -1,24 -1,24 1,25 1,13 4,24 8,22 5,11 6,9 7,9 8,7 9,7 20,10 22,8 23,5 23,3 23,2 21,1 30,1 h 64 l 33,-2 16,-2 15,-3 16,-3 15,-4 41,-12 19,-7 19,-8 18,-10 8,-5 8,-6 8,-7 8,-7 7,-8 7,-9 6,-9 6,-10 4,-9 4,-10 7,-20 7,-20 8,-24 8,-24 5,-24 2,-12 2,-13 v -25 -19 l -1,-20 -4,-38 -4,-39 -4,-38 -2,-22 -3,-11 -3,-11 -3,-12 -5,-10 -5,-10 -6,-8 -8,-8 -9,-8 -11,-7 -12,-6 -12,-6 -12,-5 -23,-8 -12,-3 -12,-2 -12,-1 h -13 l -22,1 -21,2 -40,5 -32,4 -32,6 -16,3 -15,5 -16,5 -15,5 -23,10 -22,10 -22,11 -21,13 -11,8 -11,8 -21,17 z"
         style="fill-rule:nonzero;stroke:#000000;stroke-width:8.5px"
         id="path7670" />
    </g>
    <g
       style="clip-rule:evenodd;fill-rule:evenodd;stroke-linejoin:round;stroke-miterlimit:2"
       transform="matrix(0.03838677,0,0,0.03713723,8.0678178,141.28489)"
       id="g7676">
      <path
         inkscape:connector-curvature="0"
         d="m 1601,-1657 v -2 l -14,-2 -14,-3 -26,-7 -26,-9 -26,-9 -11,-4 -11,-6 -9,-7 -8,-7 -8,-9 -7,-9 -6,-10 -6,-11 -5,-13 -5,-13 -10,-26 -7,-17 -8,-16 -6,-12 -5,-11 -8,-24 -6,-23 -6,-21 -3,-21 -1,-22 1,-19 3,-21 9,-44 9,-45 8,-39 3,-9 3,-9 3,-9 5,-8 6,-9 7,-7 8,-5 9,-5 9,-5 10,-3 19,-6 21,-6 21,-4 20,-3 21,-1 h 5 l 118,4 15,1 16,1 30,6 15,4 15,5 14,5 14,6 14,7 13,8 13,9 11,9 12,11 20,22 9,13 15,25 7,12 7,13 5,13 4,13 3,14 1,14 -1,11 -1,11 -8,33 -2,16 -2,18 1,9 1,10 3,20 3,21 1,22 v 21 l -1,33 -1,10 -2,11 -2,10 -4,10 -8,20 -9,19 -13,21 -6,9 -7,8 -8,6 -9,6 -10,3 -12,3 -36,2 -36,1 -40,-1 -40,-2 -40,-3 -40,-4 v 4 l 39,4 41,3 40,2 40,1 36,-1 36,-2 13,-3 11,-4 10,-5 8,-8 7,-8 7,-9 12,-21 10,-19 8,-20 4,-11 2,-11 2,-10 1,-10 1,-34 v -22 l -1,-21 -3,-21 -3,-21 -1,-9 -1,-9 1,-17 3,-16 8,-34 1,-11 1,-11 -1,-15 -3,-14 -4,-13 -6,-14 -6,-13 -7,-12 -16,-25 -9,-13 -10,-12 -10,-11 -12,-11 -12,-9 -13,-9 -13,-8 -14,-7 -14,-7 -15,-5 -15,-5 -15,-4 -15,-3 -16,-3 -15,-1 -16,-1 -118,-4 h -5 l -21,1 -21,3 -21,5 -21,5 -20,6 -10,4 -9,4 -9,5 -9,6 -7,8 -7,9 -4,8 -4,9 -3,10 -3,10 -8,38 -9,45 -9,44 -3,21 -1,20 v 11 l 1,11 4,22 5,21 6,23 8,24 5,12 7,12 8,16 7,16 9,26 5,14 5,12 12,22 8,10 8,9 18,14 11,6 12,5 52,18 13,4 14,3 13,3 15,2 z"
         style="fill-rule:nonzero;stroke:#000000;stroke-width:8.5px"
         id="path7674" />
    </g>
  </g>
</svg>
